<?xml version="1.0" standalone="no"?>
<!DOCTYPE svg PUBLIC "-//W3C//DTD SVG 20010904//EN"
 "http://www.w3.org/TR/2001/REC-SVG-20010904/DTD/svg10.dtd">
<svg version="1.0" xmlns="http://www.w3.org/2000/svg"
 width="1284.000000pt" height="800.000000pt" viewBox="0 0 1284.000000 800.000000"
 preserveAspectRatio="xMidYMid meet">

<g transform="translate(0.000000,800.000000) scale(0.100000,-0.100000)"
fill="#000000" stroke="none">
<path d="M0 4000 c0 -3993 0 -4000 20 -4000 20 0 20 7 21 1768 0 1164 4 1758
10 1740 6 -16 22 -31 41 -37 43 -15 1743 -15 1786 0 43 15 52 50 52 209 0 159
-9 194 -52 209 -43 15 -1743 15 -1786 0 -19 -6 -35 -21 -41 -37 -6 -19 -10 73
-10 296 l-1 322 6400 0 6400 0 0 1390 0 1390 -6400 0 -6400 0 0 365 0 365
6400 0 c4260 0 6400 3 6400 10 0 7 -2147 10 -6420 10 l-6420 0 0 -4000z m6208
2161 c8 -4 12 -19 10 -32 -4 -29 -45 -34 -61 -7 -19 30 19 60 51 39z m-1328
-146 l0 -135 -30 0 -30 0 0 135 0 135 30 0 30 0 0 -135z m110 85 c3 -28 8 -40
13 -32 5 6 25 12 46 12 58 0 73 -24 79 -120 l5 -80 -36 0 -36 0 -3 73 -3 72
-30 0 -30 0 -3 -72 -3 -73 -34 0 -35 0 0 128 c0 71 3 132 7 136 4 4 19 6 33 4
22 -3 26 -9 30 -48z m1120 -85 l0 -135 -30 0 -30 0 0 135 0 135 30 0 30 0 0
-135z m1240 0 l0 -135 -30 0 c-16 0 -30 5 -30 10 0 7 -6 7 -19 0 -34 -18 -80
-12 -106 15 -33 32 -35 110 -4 149 22 28 73 35 110 16 17 -10 19 -7 19 35 0
43 1 45 30 45 l30 0 0 -135z m2598 109 c-9 -20 -17 -22 -74 -22 -62 1 -65 4
-42 34 5 7 34 12 67 11 58 0 59 -1 49 -23z m-5573 -76 c16 -43 33 -78 36 -78
3 0 20 35 36 78 30 75 31 77 67 80 l36 3 0 -125 0 -126 -30 0 c-29 0 -29 0
-32 68 l-3 67 -24 -67 c-22 -61 -27 -68 -51 -68 -24 0 -30 7 -53 68 l-25 67
-1 -67 -1 -68 -30 0 -30 0 0 126 0 125 37 -3 c37 -3 38 -5 68 -80z m3483 62
c15 -15 22 -33 22 -60 0 -49 -35 -80 -91 -80 l-39 0 0 -45 c0 -43 -1 -45 -30
-45 l-30 0 0 125 0 125 73 0 c60 0 77 -4 95 -20z m-3104 -52 c15 -13 29 -38
32 -55 l7 -33 -72 0 c-64 0 -72 -2 -69 -17 4 -21 45 -30 61 -14 14 14 67 14
67 1 0 -6 -11 -22 -25 -35 -29 -30 -97 -34 -132 -10 -33 23 -47 86 -29 129 18
42 39 55 93 56 30 0 49 -7 67 -22z m571 6 c48 -32 52 -114 8 -159 -30 -29 -87
-34 -132 -10 -34 17 -41 32 -41 91 0 63 32 94 95 94 25 0 57 -7 70 -16z m135
6 c0 -7 6 -7 19 0 31 16 41 12 41 -18 0 -22 -7 -30 -30 -39 -29 -11 -30 -14
-30 -72 l0 -61 -30 0 -30 0 0 100 0 100 30 0 c17 0 30 -5 30 -10z m241 -3 c21
-16 39 -51 39 -76 0 -19 -6 -21 -71 -21 -71 0 -85 -10 -46 -34 12 -8 22 -7 37
2 27 17 70 16 70 -2 0 -26 -50 -56 -92 -56 -76 0 -123 84 -86 153 18 35 40 46
88 46 25 0 52 -5 61 -12z m211 -4 c10 -9 18 -24 18 -35 0 -23 -36 -24 -61 -2
-10 9 -23 13 -28 9 -21 -12 -11 -24 29 -35 38 -10 70 -41 70 -67 0 -7 -9 -22
-20 -33 -30 -30 -103 -28 -135 5 -14 13 -25 29 -25 35 0 15 51 12 70 -5 21
-19 56 -10 40 10 -6 7 -25 15 -42 19 -17 3 -37 11 -45 17 -18 16 -16 59 4 81
21 24 99 25 125 1z m308 -83 l0 -100 -30 0 -30 0 0 100 0 100 30 0 30 0 0
-100z m113 30 l21 -65 20 68 c19 66 20 67 54 67 38 0 39 9 -7 -117 l-29 -78
-40 -3 -40 -3 -17 53 c-10 29 -26 75 -36 101 l-19 48 36 -3 c35 -3 37 -5 57
-68z m217 60 c0 -7 6 -7 19 0 31 16 41 12 41 -18 0 -22 -7 -30 -30 -39 -29
-11 -30 -14 -30 -72 l0 -61 -30 0 -30 0 0 100 0 100 30 0 c17 0 30 -5 30 -10z
m253 -10 c48 -38 44 -130 -7 -165 -11 -8 -40 -15 -64 -15 -35 0 -49 6 -73 29
-65 66 -20 171 74 171 29 0 53 -7 70 -20z m207 0 c11 -11 20 -27 20 -35 0 -20
-39 -19 -61 1 -10 9 -23 13 -28 9 -20 -12 -11 -23 27 -36 50 -16 62 -27 62
-57 0 -40 -27 -62 -75 -62 -45 0 -95 29 -95 56 0 20 49 18 72 -3 13 -12 22
-13 29 -6 16 16 4 29 -32 37 -18 3 -38 11 -46 17 -18 16 -16 59 4 81 23 26 96
25 123 -2z m545 -6 c14 -15 25 -39 25 -55 0 -28 -1 -28 -67 -31 -67 -3 -81
-13 -49 -33 11 -7 22 -6 36 3 25 15 70 16 70 0 0 -6 -10 -22 -22 -35 -16 -17
-32 -23 -66 -23 -91 0 -135 99 -76 169 22 27 32 31 75 31 41 0 54 -5 74 -26z
m425 14 c0 -9 3 -9 12 0 23 23 48 14 48 -16 0 -22 -7 -30 -30 -39 -29 -11 -30
-14 -30 -72 l0 -61 -35 0 -35 0 0 100 0 100 35 0 c21 0 35 -5 35 -12z m247 -3
c51 -36 50 -135 -2 -169 -44 -29 -121 -17 -152 23 -27 35 -12 119 26 148 22
17 102 16 128 -2z m194 5 c13 -7 19 -7 19 0 0 5 14 10 30 10 l30 0 0 -110 c0
-117 -12 -159 -49 -180 -49 -26 -142 4 -154 49 -4 18 -1 21 24 21 16 0 40 -7
54 -16 22 -14 25 -14 44 5 28 28 29 56 2 41 -34 -18 -80 -12 -106 15 -33 32
-35 110 -4 149 22 28 73 35 110 16z m182 -2 c4 -10 7 -10 18 0 24 23 49 15 49
-17 0 -23 -5 -30 -29 -34 -32 -7 -41 -27 -41 -94 0 -41 -1 -43 -30 -43 l-30 0
0 100 0 100 29 0 c16 0 31 -6 34 -12z m297 -89 l0 -99 -35 0 c-21 0 -35 5 -35
12 0 9 -3 9 -12 0 -17 -17 -69 -15 -95 3 -31 22 -47 78 -34 117 21 60 34 67
127 66 l84 0 0 -99z m100 89 c0 -9 3 -9 12 0 17 17 84 15 101 -2 13 -13 17
-13 33 -1 11 8 36 15 56 15 57 0 78 -34 78 -126 l0 -74 -30 0 c-30 0 -30 0
-30 56 0 63 -13 94 -38 94 -31 0 -42 -22 -42 -87 l0 -63 -30 0 -30 0 0 63 c0
65 -11 87 -42 87 -25 0 -38 -31 -38 -94 0 -56 0 -56 -30 -56 l-30 0 0 100 0
100 30 0 c17 0 30 -5 30 -12z m448 0 c9 -9 12 -9 12 0 0 7 13 12 30 12 l30 0
0 -100 0 -100 -30 0 c-17 0 -30 5 -30 12 0 9 -3 9 -12 0 -13 -13 -66 -16 -93
-6 -22 9 -45 57 -45 94 0 35 23 86 42 93 25 10 84 7 96 -5z m277 -13 c14 -13
25 -29 25 -35 0 -14 -56 -13 -79 2 -26 16 -51 -5 -51 -42 0 -37 25 -58 51 -42
19 12 79 17 79 6 0 -19 -26 -48 -53 -59 l-32 -13 28 -11 c19 -8 27 -17 27 -35
0 -31 -26 -46 -75 -46 -29 0 -36 3 -33 17 2 10 16 21 33 24 17 4 22 7 13 8
-11 1 -18 9 -18 20 0 11 -14 27 -34 39 -62 37 -70 137 -13 177 35 24 104 19
132 -10z m183 13 c9 -9 12 -9 12 0 0 7 13 12 30 12 l30 0 0 -100 0 -100 -30 0
c-17 0 -30 5 -30 12 0 9 -3 9 -12 0 -7 -7 -28 -12 -48 -12 -54 0 -85 37 -85
100 0 63 31 100 85 100 20 0 41 -5 48 -12z m279 -3 c51 -36 50 -135 -2 -169
-29 -19 -87 -21 -118 -4 -35 18 -46 40 -47 89 0 65 34 99 99 99 26 0 56 -7 68
-15z m-2607 -485 c0 -5 -7 -10 -15 -10 -8 0 -15 5 -15 10 0 6 7 10 15 10 8 0
15 -4 15 -10z m1100 -48 l0 -59 -40 -1 c-34 -2 -42 2 -49 20 -4 12 -6 30 -3
40 5 19 44 34 61 23 7 -3 11 2 11 14 0 12 5 21 10 21 6 0 10 -26 10 -58z m620
-2 c0 -33 -4 -60 -10 -60 -6 0 -10 27 -10 60 0 33 4 60 10 60 6 0 10 -27 10
-60z m135 50 c-3 -5 -10 -10 -16 -10 -5 0 -9 5 -9 10 0 6 7 10 16 10 8 0 12
-4 9 -10z m-4934 -9 c-33 -9 -38 -29 -9 -40 l23 -10 -22 0 c-28 -1 -31 -31 -4
-31 11 0 23 -4 26 -10 4 -6 -8 -10 -29 -10 l-36 0 0 55 0 55 38 -1 c31 -1 33
-2 13 -8z m477 -8 c12 -12 13 -18 4 -21 -15 -5 -16 -44 0 -60 9 -9 7 -12 -9
-12 -17 0 -22 7 -25 43 -5 40 -1 67 9 67 2 0 12 -8 21 -17z m1278 3 c9 -9 10
-17 4 -21 -14 -9 -13 -48 2 -63 9 -9 7 -12 -9 -12 -17 0 -22 7 -25 43 -5 40
-1 67 9 67 2 0 11 -6 19 -14z m272 -3 c12 -12 13 -18 4 -21 -15 -5 -16 -44 0
-60 9 -9 7 -12 -9 -12 -17 0 -22 7 -25 43 -5 40 -1 67 9 67 2 0 12 -8 21 -17z
m3330 0 c12 -12 13 -18 4 -21 -14 -4 -16 -52 -2 -52 6 0 10 -5 10 -11 0 -6 -8
-9 -17 -7 -25 5 -40 108 -16 108 2 0 12 -8 21 -17z m152 -24 c0 -24 -4 -38
-10 -34 -5 3 -10 22 -10 41 0 19 5 34 10 34 6 0 10 -18 10 -41z m-5402 9 c14
-14 16 -78 2 -78 -5 0 -10 16 -10 35 0 28 -4 35 -20 35 -16 0 -20 -7 -20 -35
0 -19 -4 -35 -10 -35 -5 0 -10 20 -10 45 0 43 1 45 28 45 15 0 33 -5 40 -12z
m102 -3 c11 -13 8 -14 -19 -9 -29 6 -31 4 -31 -21 0 -25 3 -27 30 -22 23 5 28
3 23 -9 -4 -10 -16 -14 -37 -12 -26 2 -32 8 -34 31 -6 49 39 77 68 42z m98 3
c30 -30 3 -83 -39 -76 -32 5 -45 31 -31 62 13 28 49 35 70 14z m96 6 c18 -7
23 -84 6 -84 -5 0 -10 16 -10 35 0 28 -4 35 -20 35 -16 0 -20 -7 -20 -35 0
-19 -4 -35 -10 -35 -5 0 -10 20 -10 45 0 41 2 45 24 45 13 0 31 -3 40 -6z
m146 -4 c0 -4 -7 -10 -15 -14 -9 -3 -15 -18 -15 -36 0 -16 -4 -30 -10 -30 -5
0 -10 20 -10 44 0 40 2 44 25 44 14 0 25 -4 25 -8z m84 -6 c25 -24 19 -34 -19
-34 -19 0 -35 -4 -35 -9 0 -14 27 -20 39 -8 13 13 26 3 16 -12 -8 -15 -48 -14
-63 1 -7 7 -12 21 -12 33 0 42 44 59 74 29z m140 0 c25 -24 19 -34 -19 -34
-19 0 -35 -4 -35 -9 0 -14 27 -20 39 -8 13 13 26 3 16 -12 -8 -15 -48 -14 -63
1 -7 7 -12 21 -12 33 0 42 44 59 74 29z m164 4 c14 -12 17 -78 3 -78 -6 0 -11
15 -13 32 -2 22 -9 34 -20 36 -15 3 -18 -4 -18 -32 0 -45 -18 -48 -22 -3 -2
24 -8 32 -23 32 -15 0 -21 -8 -23 -32 -5 -49 -22 -40 -22 11 l0 43 63 0 c34 0
68 -4 75 -9z m150 -35 c2 -26 -1 -43 -7 -43 -6 0 -11 16 -11 36 0 28 -3 35
-17 32 -12 -2 -19 -14 -21 -36 -5 -48 -22 -39 -22 12 l0 44 38 -1 c36 -2 37
-3 40 -44z m100 35 c7 -7 12 -21 12 -33 0 -12 -5 -26 -12 -33 -7 -7 -21 -12
-33 -12 -12 0 -26 5 -33 12 -7 7 -12 21 -12 33 0 12 5 26 12 33 7 7 21 12 33
12 12 0 26 -5 33 -12z m90 -6 c3 -9 -3 -11 -22 -6 -33 8 -34 -3 -1 -16 34 -13
35 -50 1 -50 -13 0 -29 7 -37 16 -11 13 -9 14 16 8 20 -5 26 -4 21 5 -4 6 -13
11 -21 11 -18 0 -26 25 -12 39 15 15 49 10 55 -7z m76 12 c26 -10 18 -25 -9
-18 -33 8 -32 -4 1 -16 16 -7 24 -16 22 -28 -4 -20 -45 -29 -61 -13 -15 15 0
26 17 12 10 -8 16 -9 21 -1 3 5 -5 14 -19 20 -25 9 -34 29 -19 43 8 9 27 9 47
1z m116 -41 c0 -43 0 -43 -35 -43 -28 0 -38 5 -46 24 -17 37 3 66 46 64 34 -1
35 -2 35 -45z m138 35 c21 -21 13 -38 -18 -38 -16 0 -30 -4 -30 -8 0 -17 13
-21 32 -11 16 9 19 8 16 -3 -3 -7 -17 -14 -31 -16 -34 -4 -55 33 -38 67 13 23
50 28 69 9z m90 -6 c3 -9 -3 -11 -22 -6 -34 8 -34 -4 0 -16 16 -7 24 -16 22
-28 -4 -23 -53 -29 -61 -7 -5 12 -1 14 20 9 18 -5 24 -4 19 5 -4 6 -13 11 -21
11 -18 0 -26 25 -12 39 15 15 49 10 55 -7z m172 -28 l0 -42 -42 2 c-39 1 -43
3 -46 29 -5 38 13 57 54 55 33 -1 34 -2 34 -44z m98 -1 c2 -26 -1 -43 -7 -43
-6 0 -11 16 -11 36 0 28 -3 35 -17 32 -12 -2 -19 -14 -21 -36 -5 -48 -22 -39
-22 12 l0 44 38 -1 c36 -2 37 -3 40 -44z m156 31 c25 -24 19 -34 -19 -34 -19
0 -35 -4 -35 -9 0 -14 27 -20 39 -8 13 13 26 3 16 -12 -8 -15 -48 -14 -63 1
-7 7 -12 21 -12 33 0 42 44 59 74 29z m144 4 c7 -7 12 -21 12 -33 0 -12 -5
-26 -12 -33 -7 -7 -21 -12 -33 -12 -12 0 -26 5 -33 12 -7 7 -12 21 -12 33 0
12 5 26 12 33 7 7 21 12 33 12 12 0 26 -5 33 -12z m152 -55 c0 -35 -4 -63 -10
-63 -5 0 -10 9 -10 19 0 14 -8 21 -26 23 -37 4 -51 29 -36 62 9 21 18 25 47
24 l35 -1 0 -64z m53 0 c15 -14 37 8 37 37 0 16 5 30 10 30 6 0 10 -21 10 -46
l0 -45 -37 3 c-38 3 -38 4 -40 48 -2 42 -1 43 7 12 4 -18 10 -36 13 -39z m145
55 c21 -21 13 -38 -18 -38 -16 0 -30 -5 -30 -11 0 -8 11 -9 31 -5 27 5 30 4
19 -9 -18 -21 -57 -19 -70 4 -14 27 -13 37 6 55 18 19 45 21 62 4z m149 0 c32
-26 3 -86 -37 -75 -16 4 -20 0 -20 -19 0 -13 -4 -24 -10 -24 -6 0 -10 28 -10
63 l0 64 32 1 c18 0 38 -4 45 -10z m73 0 c0 -4 -4 -10 -10 -13 -5 -3 -10 -19
-10 -36 0 -16 -4 -29 -10 -29 -5 0 -10 20 -10 44 0 39 3 45 20 43 11 -1 20 -5
20 -9z m88 0 c21 -21 13 -38 -18 -38 -16 0 -30 -5 -30 -11 0 -7 11 -9 30 -6
23 5 28 3 23 -8 -8 -22 -60 -19 -73 4 -24 45 33 94 68 59z m102 -3 c11 -13 8
-15 -21 -13 -28 3 -34 0 -34 -17 0 -16 6 -20 33 -18 27 1 31 -1 21 -13 -19
-23 -58 -17 -70 10 -23 49 37 92 71 51z m37 -52 c-2 -16 -4 -5 -4 22 0 28 2
40 4 28 2 -13 2 -35 0 -50z m91 49 c3 -9 -3 -11 -22 -6 -33 8 -34 -3 -1 -16
34 -13 35 -50 1 -50 -13 0 -29 7 -37 16 -11 13 -9 14 16 8 20 -5 26 -4 21 5
-4 6 -13 11 -21 11 -18 0 -26 25 -12 39 15 15 49 10 55 -7z m112 -28 c0 -38
-3 -43 -22 -42 -55 0 -68 8 -68 36 0 37 16 52 57 50 32 -1 33 -2 33 -44z m128
40 c20 -4 23 -10 20 -42 -3 -34 -5 -37 -35 -37 -28 0 -33 -4 -33 -22 0 -13 -4
-23 -10 -23 -6 0 -10 28 -10 64 0 70 2 72 68 60z m132 -40 l0 -42 -42 2 c-41
1 -43 2 -46 35 -4 39 9 51 55 49 32 -1 33 -3 33 -44z m70 36 c0 -4 -7 -10 -15
-14 -9 -3 -15 -18 -15 -36 0 -16 -4 -30 -10 -30 -5 0 -10 20 -10 44 0 40 2 44
25 44 14 0 25 -4 25 -8z m100 -36 l0 -42 -42 2 c-41 1 -43 2 -46 35 -4 39 9
51 55 49 32 -1 33 -3 33 -44z m121 30 c11 -13 9 -14 -17 -9 -27 6 -28 5 -10
-9 10 -8 24 -17 29 -19 6 -2 8 -11 4 -20 -7 -19 -52 -23 -62 -6 -11 16 3 23
19 10 10 -8 16 -9 21 -1 3 5 -5 14 -19 20 -25 9 -34 29 -19 43 12 12 40 7 54
-9z m97 4 c23 -23 13 -38 -24 -38 -31 0 -35 -2 -24 -15 10 -12 16 -13 27 -4
15 13 28 6 18 -10 -8 -15 -48 -14 -63 1 -7 7 -12 21 -12 33 0 12 5 26 12 33 7
7 21 12 33 12 12 0 26 -5 33 -12z m44 -20 c2 -25 8 -33 23 -33 15 0 21 8 23
33 5 48 22 39 22 -13 0 -45 0 -45 -35 -45 -38 0 -55 20 -55 64 0 38 18 32 22
-6z m306 20 c21 -21 13 -38 -18 -38 -16 0 -30 -5 -30 -11 0 -8 11 -9 31 -5 27
5 30 4 19 -9 -34 -41 -96 6 -71 54 13 23 50 28 69 9z m90 -7 c3 -9 -2 -11 -17
-6 -11 3 -21 2 -21 -3 0 -5 9 -12 20 -15 30 -8 27 -47 -4 -47 -13 0 -29 7 -36
15 -11 13 -8 14 21 10 33 -5 33 -5 9 7 -33 17 -41 30 -28 46 14 16 50 12 56
-7z m96 3 c25 -24 19 -34 -19 -34 -19 0 -35 -4 -35 -9 0 -14 27 -20 39 -8 13
13 26 3 16 -12 -8 -15 -48 -14 -63 1 -7 7 -12 21 -12 33 0 42 44 59 74 29z
m104 -31 c2 -26 -1 -43 -7 -43 -6 0 -11 16 -11 36 0 28 -3 35 -17 32 -12 -2
-19 -14 -21 -36 -5 -48 -22 -39 -22 12 l0 44 38 -1 c36 -2 37 -3 40 -44z m52
15 l13 -33 10 33 c9 30 27 44 27 22 0 -21 -29 -80 -39 -80 -10 0 -41 62 -41
81 0 21 19 6 30 -23z m138 20 c7 -7 12 -21 12 -33 0 -44 -60 -63 -80 -26 -14
27 -13 37 6 55 18 19 45 21 62 4z m97 -20 l14 -33 11 33 c7 17 16 32 21 32 12
0 12 -3 -7 -50 -9 -22 -21 -40 -28 -40 -6 0 -19 20 -28 45 -19 52 -4 62 17 13z
m85 -13 c0 -25 -4 -45 -10 -45 -5 0 -10 20 -10 45 0 25 5 45 10 45 6 0 10 -20
10 -45z m153 38 c12 -3 17 -15 17 -44 0 -21 -4 -39 -10 -39 -5 0 -10 16 -10
35 0 28 -4 35 -20 35 -16 0 -20 -7 -20 -35 0 -44 -18 -46 -22 -3 -2 22 -9 34
-20 36 -15 3 -18 -4 -18 -32 0 -20 -4 -36 -10 -36 -5 0 -10 20 -10 45 l0 45
53 -1 c28 -1 60 -3 70 -6z m103 -1 c6 -4 13 -15 17 -24 5 -15 1 -18 -28 -18
-19 0 -35 -4 -35 -9 0 -14 27 -20 39 -8 13 13 26 3 16 -12 -8 -15 -48 -14 -63
1 -37 37 11 99 54 70z m112 -39 c2 -26 -1 -43 -7 -43 -6 0 -11 16 -11 36 0 28
-3 35 -17 32 -12 -2 -19 -14 -21 -36 -5 -48 -22 -39 -22 12 l0 44 38 -1 c36
-2 37 -3 40 -44z m160 35 c7 -7 12 -21 12 -33 0 -12 -5 -26 -12 -33 -7 -7 -21
-12 -33 -12 -12 0 -26 5 -33 12 -7 7 -12 21 -12 33 0 12 5 26 12 33 7 7 21 12
33 12 12 0 26 -5 33 -12z m52 -68 c0 -5 -4 -10 -10 -10 -5 0 -10 5 -10 10 0 6
5 10 10 10 6 0 10 -4 10 -10z m-9780 -1789 c0 -30 4 -40 20 -44 18 -5 20 0 20
39 0 42 1 44 29 44 25 0 31 -6 42 -37 l12 -38 12 34 c6 19 17 37 23 39 15 5
15 5 -4 -52 -20 -59 -41 -58 -63 4 l-16 45 -3 -47 -3 -48 -45 0 -44 0 0 50 c0
28 5 50 10 50 6 0 10 -17 10 -39z m254 23 c3 -8 1 -24 -5 -35 -7 -15 -7 -24 2
-35 9 -11 8 -14 -4 -14 -8 0 -22 10 -30 23 l-16 22 0 -22 c-2 -47 -21 -21 -21
27 l0 50 34 0 c22 0 36 -6 40 -16z m104 4 c7 -7 12 -24 12 -38 0 -33 -17 -50
-50 -50 -33 0 -50 17 -50 50 0 33 17 50 50 50 14 0 31 -5 38 -12z m92 -3 c0
-12 -7 -14 -26 -9 -19 5 -25 4 -20 -5 4 -6 13 -11 20 -11 20 0 37 -25 30 -44
-8 -21 -65 -18 -72 3 -3 10 2 12 22 7 15 -4 26 -2 26 4 0 5 -6 10 -14 10 -20
0 -39 27 -32 45 7 20 66 20 66 0z m138 3 c7 -7 12 -24 12 -38 0 -35 -17 -50
-57 -50 -33 0 -33 0 -33 50 0 50 0 50 33 50 18 0 38 -5 45 -12z m82 2 c0 -5
-9 -10 -20 -10 -11 0 -20 -4 -20 -10 0 -5 9 -10 20 -10 11 0 20 -4 20 -10 0
-5 -9 -10 -20 -10 -11 0 -20 -4 -20 -10 0 -5 9 -10 20 -10 11 0 20 -4 20 -10
0 -5 -13 -10 -30 -10 -29 0 -30 1 -30 50 0 49 1 50 30 50 17 0 30 -4 30 -10z
m115 0 c-3 -5 -13 -10 -21 -10 -8 0 -14 -4 -14 -10 0 -5 7 -10 15 -10 8 0 15
-4 15 -10 0 -5 -7 -10 -15 -10 -8 0 -15 -9 -15 -20 0 -11 -7 -20 -15 -20 -11
0 -15 12 -15 50 l0 50 36 0 c21 0 33 -4 29 -10z m80 -42 c1 -53 -5 -59 -28
-25 l-16 22 0 -22 c-2 -47 -21 -21 -21 28 l0 50 33 -3 c31 -3 32 -4 32 -50z
m113 40 c7 -7 12 -24 12 -38 0 -33 -17 -50 -49 -50 -28 0 -61 26 -61 48 0 41
69 69 98 40z m67 -20 l20 -33 3 33 c5 51 22 37 22 -18 0 -59 -16 -66 -45 -17
l-20 32 -3 -32 c-5 -52 -22 -38 -22 17 0 59 16 66 45 18z m123 18 c-12 -8 -18
-27 -18 -50 0 -20 -4 -36 -10 -36 -5 0 -10 18 -10 40 0 29 -4 40 -15 40 -8 0
-15 5 -15 10 0 6 19 10 43 10 37 -1 40 -2 25 -14z m162 4 c0 -5 -9 -10 -20
-10 -11 0 -20 -4 -20 -10 0 -5 9 -10 20 -10 11 0 20 -4 20 -10 0 -5 -9 -10
-20 -10 -11 0 -20 -4 -20 -10 0 -5 9 -10 20 -10 11 0 20 -4 20 -10 0 -5 -13
-10 -30 -10 -29 0 -30 1 -30 50 0 49 1 50 30 50 17 0 30 -4 30 -10z m59 -17
l20 -28 1 28 c0 15 5 27 10 27 6 0 10 -22 10 -50 0 -57 -9 -62 -39 -22 l-20
27 -1 -27 c0 -16 -4 -28 -10 -28 -5 0 -10 23 -10 50 0 57 9 62 39 23z m139 15
c7 -7 12 -24 12 -38 0 -35 -17 -50 -57 -50 -33 0 -33 0 -33 50 0 50 0 50 33
50 18 0 38 -5 45 -12z m-278 -38 c0 -5 -13 -10 -30 -10 -16 0 -30 5 -30 10 0
6 14 10 30 10 17 0 30 -4 30 -10z"/>
<path d="M7212 6018 c-7 -7 -12 -24 -12 -38 0 -52 48 -68 76 -25 15 23 15 27
0 50 -18 27 -45 32 -64 13z"/>
<path d="M7750 6050 c0 -29 2 -31 33 -28 27 2 32 7 32 28 0 21 -5 26 -32 28
-31 3 -33 1 -33 -28z"/>
<path d="M4657 6024 c-15 -16 -5 -24 29 -24 24 0 34 4 32 13 -5 13 -50 22 -61
11z"/>
<path d="M5231 6016 c-31 -37 9 -103 47 -80 36 23 23 94 -18 94 -10 0 -23 -6
-29 -14z"/>
<path d="M5606 6015 c-4 -12 3 -15 36 -15 35 0 39 2 28 15 -7 8 -23 15 -35 15
-13 0 -25 -7 -29 -15z"/>
<path d="M6706 6014 c-9 -8 -16 -24 -16 -34 0 -21 25 -50 44 -50 20 0 36 22
36 50 0 46 -34 64 -64 34z"/>
<path d="M7450 6015 c-11 -13 -7 -15 28 -15 33 0 40 3 36 15 -4 8 -16 15 -29
15 -12 0 -28 -7 -35 -15z"/>
<path d="M8132 6018 c-25 -25 -6 -88 26 -88 25 0 42 20 42 50 0 29 -16 50 -40
50 -9 0 -21 -5 -28 -12z"/>
<path d="M8362 6018 c-26 -26 -6 -88 28 -88 11 0 27 11 36 25 15 23 15 27 0
50 -18 27 -45 32 -64 13z"/>
<path d="M8761 6016 c-31 -37 9 -103 47 -80 36 23 23 94 -18 94 -10 0 -23 -6
-29 -14z"/>
<path d="M9387 6012 c-22 -24 -21 -45 2 -66 40 -36 88 14 61 63 -13 26 -41 27
-63 3z"/>
<path d="M9852 6018 c-17 -17 -15 -63 3 -78 12 -10 21 -10 40 -2 42 19 30 92
-15 92 -9 0 -21 -5 -28 -12z"/>
<path d="M10091 6016 c-31 -37 9 -103 47 -80 36 23 23 94 -18 94 -10 0 -23 -6
-29 -14z"/>
<path d="M8608 5528 c-8 -21 2 -38 22 -38 23 0 32 13 24 34 -7 19 -40 21 -46
4z"/>
<path d="M4754 5525 c-8 -20 4 -35 27 -35 14 0 19 7 19 25 0 18 -5 25 -20 25
-11 0 -23 -7 -26 -15z"/>
<path d="M5085 5530 c-3 -5 3 -10 14 -10 12 0 21 5 21 10 0 6 -6 10 -14 10 -8
0 -18 -4 -21 -10z"/>
<path d="M5225 5530 c-3 -5 3 -10 14 -10 12 0 21 5 21 10 0 6 -6 10 -14 10 -8
0 -18 -4 -21 -10z"/>
<path d="M5634 5525 c-4 -9 -2 -21 4 -27 15 -15 44 -1 40 19 -4 23 -36 29 -44
8z"/>
<path d="M5904 5525 c-8 -20 4 -35 27 -35 14 0 19 7 19 25 0 18 -5 25 -20 25
-11 0 -23 -7 -26 -15z"/>
<path d="M6060 5530 c0 -5 9 -10 20 -10 11 0 20 5 20 10 0 6 -9 10 -20 10 -11
0 -20 -4 -20 -10z"/>
<path d="M6300 5515 c0 -22 4 -26 23 -23 14 2 22 10 22 23 0 13 -8 21 -22 23
-19 3 -23 -1 -23 -23z"/>
<path d="M6575 5530 c-3 -5 3 -10 14 -10 12 0 21 5 21 10 0 6 -6 10 -14 10 -8
0 -18 -4 -21 -10z"/>
<path d="M6717 5534 c-4 -4 -7 -16 -7 -26 0 -14 6 -19 23 -16 14 2 22 10 22
23 0 20 -25 32 -38 19z"/>
<path d="M6854 5525 c-8 -20 4 -35 27 -35 14 0 19 7 19 25 0 18 -5 25 -20 25
-11 0 -23 -7 -26 -15z"/>
<path d="M7070 5530 c0 -5 9 -10 20 -10 11 0 20 5 20 10 0 6 -9 10 -20 10 -11
0 -20 -4 -20 -10z"/>
<path d="M7214 5525 c-4 -9 -2 -21 4 -27 15 -15 44 -1 40 19 -4 23 -36 29 -44
8z"/>
<path d="M7380 5530 c0 -5 9 -10 20 -10 11 0 20 5 20 10 0 6 -9 10 -20 10 -11
0 -20 -4 -20 -10z"/>
<path d="M7707 5534 c-4 -4 -7 -16 -7 -26 0 -14 6 -19 23 -16 14 2 22 10 22
23 0 20 -25 32 -38 19z"/>
<path d="M7854 5525 c-8 -20 4 -35 27 -35 14 0 19 7 19 25 0 18 -5 25 -20 25
-11 0 -23 -7 -26 -15z"/>
<path d="M7960 5515 c0 -18 5 -25 19 -25 24 0 33 13 25 34 -10 27 -44 20 -44
-9z"/>
<path d="M8130 5515 c0 -18 5 -25 19 -25 24 0 33 13 25 34 -10 27 -44 20 -44
-9z"/>
<path d="M8365 5530 c-4 -6 5 -10 20 -10 15 0 24 4 20 10 -3 6 -12 10 -20 10
-8 0 -17 -4 -20 -10z"/>
<path d="M8720 5530 c0 -5 9 -10 20 -10 11 0 20 5 20 10 0 6 -9 10 -20 10 -11
0 -20 -4 -20 -10z"/>
<path d="M8900 5530 c0 -5 9 -10 20 -10 11 0 20 5 20 10 0 6 -9 10 -20 10 -11
0 -20 -4 -20 -10z"/>
<path d="M9194 5525 c-8 -20 4 -35 27 -35 14 0 19 7 19 25 0 18 -5 25 -20 25
-11 0 -23 -7 -26 -15z"/>
<path d="M9640 5530 c0 -5 9 -10 20 -10 11 0 20 5 20 10 0 6 -9 10 -20 10 -11
0 -20 -4 -20 -10z"/>
<path d="M9907 5534 c-4 -4 -7 -16 -7 -26 0 -14 6 -19 23 -16 14 2 22 10 22
23 0 20 -25 32 -38 19z"/>
<path d="M430 3700 c0 -5 7 -10 15 -10 8 0 15 5 15 10 0 6 -7 10 -15 10 -8 0
-15 -4 -15 -10z"/>
<path d="M524 3696 c-10 -26 4 -48 28 -44 17 2 23 10 23 28 0 18 -6 26 -23 28
-13 2 -25 -3 -28 -12z"/>
<path d="M760 3680 c0 -23 5 -30 19 -30 10 0 21 7 25 15 8 23 -4 45 -25 45
-14 0 -19 -7 -19 -30z"/>
<path d="M1050 3700 c0 -5 7 -10 15 -10 8 0 15 5 15 10 0 6 -7 10 -15 10 -8 0
-15 -4 -15 -10z"/>
<path d="M1144 3696 c-10 -26 4 -48 28 -44 17 2 23 10 23 28 0 18 -6 26 -23
28 -13 2 -25 -3 -28 -12z"/>
<path d="M1700 3680 c0 -23 5 -30 19 -30 21 0 33 22 25 45 -4 8 -15 15 -25 15
-14 0 -19 -7 -19 -30z"/>
<path d="M6320 7670 c0 -113 1 -120 20 -120 19 0 20 7 20 120 0 113 -1 120
-20 120 -19 0 -20 -7 -20 -120z"/>
<path d="M6147 7672 c-26 -59 -47 -110 -47 -114 0 -17 39 -7 45 12 5 15 15 20
45 20 30 0 40 -5 45 -20 6 -19 55 -30 55 -12 0 7 -89 214 -94 219 -2 2 -24
-45 -49 -105z m57 -18 c9 -23 8 -24 -13 -24 -14 0 -18 5 -14 20 6 24 19 26 27
4z"/>
<path d="M7400 7665 c0 -96 3 -115 15 -115 9 0 15 9 15 25 0 32 9 32 35 -1 33
-41 50 -26 20 18 l-24 36 22 15 c12 8 19 18 14 23 -4 4 -21 -2 -37 -15 l-30
-22 0 76 c0 60 -3 75 -15 75 -12 0 -15 -19 -15 -115z"/>
<path d="M6897 7763 c-4 -3 -7 -53 -7 -110 l0 -103 50 0 c37 0 55 5 70 20 24
24 26 53 5 73 -11 12 -12 21 -3 44 14 38 6 61 -27 73 -30 11 -78 13 -88 3z
m84 -39 c18 -21 0 -48 -35 -52 -24 -3 -26 0 -26 32 0 31 3 36 24 36 13 0 29
-7 37 -16z m14 -114 c0 -22 -5 -25 -37 -28 -36 -3 -38 -2 -38 28 0 30 2 31 38
28 32 -3 37 -6 37 -28z"/>
<path d="M6643 7675 c-13 -9 -23 -11 -23 -6 0 6 -9 11 -20 11 -18 0 -20 -7
-20 -65 0 -58 2 -65 20 -65 16 0 20 7 20 34 0 25 7 39 26 53 15 11 25 27 23
36 -4 16 -6 16 -26 2z"/>
<path d="M6717 7670 c-20 -16 -27 -30 -27 -54 0 -48 25 -65 93 -65 l57 1 0 64
c0 64 0 64 -27 63 -16 0 -37 2 -48 6 -14 4 -30 -1 -48 -15z m78 -55 c0 -23 -5
-31 -21 -33 -27 -4 -47 21 -39 48 5 16 14 20 33 18 23 -2 27 -8 27 -33z"/>
<path d="M6410 7620 c0 -49 3 -61 20 -70 13 -7 26 -7 38 -1 9 5 30 7 45 4 l27
-5 0 66 c0 59 -2 66 -20 66 -15 0 -20 -7 -20 -24 0 -37 -18 -76 -35 -76 -11 0
-15 12 -15 50 0 43 -3 50 -20 50 -18 0 -20 -7 -20 -60z"/>
<path d="M7086 7659 c-29 -23 -33 -54 -10 -87 31 -44 124 -17 124 37 0 28 -39
71 -64 71 -13 0 -35 -9 -50 -21z m69 -15 c33 -33 -4 -92 -42 -68 -10 6 -19 20
-21 31 -3 20 21 53 38 53 5 0 16 -7 25 -16z"/>
<path d="M7257 7669 c-39 -23 -41 -86 -3 -111 21 -14 73 -8 89 10 51 57 -20
139 -86 101z m54 -19 c10 -6 19 -21 19 -33 0 -49 -52 -64 -72 -22 -9 21 -8 28
7 45 21 23 20 23 46 10z"/>
<path d="M7556 7664 c-9 -8 -16 -19 -16 -24 0 -14 30 -40 46 -40 8 0 14 -7 14
-16 0 -13 -7 -15 -31 -10 -22 4 -29 2 -27 -7 3 -6 17 -13 32 -15 57 -7 79 51
26 70 -33 11 -35 32 -4 34 37 3 39 4 24 14 -22 14 -46 12 -64 -6z"/>
<path d="M2968 3889 c-39 -15 -48 -54 -48 -209 0 -159 9 -194 52 -209 43 -15
1683 -15 1726 0 43 15 52 50 52 209 0 159 -9 194 -52 209 -41 14 -1691 14
-1730 0z m142 -199 c0 -28 4 -40 14 -40 8 0 18 -4 21 -10 4 -6 -7 -10 -24 -10
-30 0 -31 1 -31 50 0 28 5 50 10 50 6 0 10 -18 10 -40z m70 -10 c0 -27 -4 -50
-10 -50 -5 0 -10 23 -10 50 0 28 5 50 10 50 6 0 10 -22 10 -50z m43 13 l14
-37 12 37 c11 34 31 51 31 27 0 -23 -33 -90 -45 -90 -10 0 -45 71 -45 93 0 20
20 2 33 -30z m144 21 c3 -9 1 -24 -4 -33 -7 -11 -7 -23 -1 -34 12 -23 -10 -23
-28 1 -13 16 -13 16 -14 0 0 -10 -7 -18 -15 -18 -11 0 -15 12 -15 50 l0 50 35
0 c24 0 38 -5 42 -16z m109 -9 c15 -23 15 -27 0 -50 -11 -17 -26 -25 -44 -25
-35 0 -52 16 -52 50 0 34 17 50 52 50 18 0 33 -8 44 -25z m92 6 c3 -10 -2 -12
-22 -7 -32 8 -35 -6 -3 -19 12 -6 22 -19 22 -30 0 -26 -59 -35 -69 -10 -5 14
-1 15 25 10 22 -5 29 -4 25 4 -4 6 -13 11 -20 11 -20 0 -37 25 -30 44 8 21 65
18 72 -3z m130 7 c7 -7 12 -24 12 -38 0 -35 -17 -50 -57 -50 -33 0 -33 0 -33
50 0 50 0 50 33 50 18 0 38 -5 45 -12z m87 2 c-3 -5 -13 -10 -21 -10 -8 0 -14
-4 -14 -10 0 -5 7 -10 15 -10 8 0 15 -4 15 -10 0 -5 -7 -10 -15 -10 -8 0 -15
-4 -15 -10 0 -5 6 -10 14 -10 8 0 18 -4 21 -10 4 -6 -8 -10 -29 -10 l-36 0 0
50 0 50 36 0 c21 0 33 -4 29 -10z m120 -40 c0 -43 -1 -45 -32 -48 l-33 -3 0
51 0 51 33 -3 c31 -3 32 -5 32 -48z m95 -2 c15 -39 16 -48 4 -48 -8 0 -14 5
-14 10 0 6 -9 10 -20 10 -11 0 -20 -4 -20 -10 0 -5 -7 -10 -16 -10 -9 0 -13 6
-10 13 2 6 10 29 17 50 16 50 36 45 59 -15z m117 35 c3 -7 -8 -11 -29 -10 -29
2 -33 -1 -33 -23 0 -22 4 -25 33 -23 40 1 38 -20 -2 -25 -30 -4 -66 21 -66 46
0 28 32 53 64 50 16 -2 31 -8 33 -15z m43 0 c0 -15 1 -15 18 0 30 28 49 20 22
-8 l-23 -25 23 -25 c27 -28 8 -36 -22 -8 -17 15 -18 15 -18 0 0 -10 -4 -17
-10 -17 -5 0 -10 23 -10 50 0 28 5 50 10 50 6 0 10 -7 10 -17z m215 7 c-3 -5
-13 -10 -21 -10 -8 0 -14 -4 -14 -10 0 -5 7 -10 15 -10 8 0 15 -4 15 -10 0 -5
-7 -10 -15 -10 -8 0 -15 -4 -15 -10 0 -5 6 -10 14 -10 8 0 18 -4 21 -10 4 -6
-8 -10 -29 -10 l-36 0 0 50 0 50 36 0 c21 0 33 -4 29 -10z m57 -17 l17 -28 1
28 c0 17 5 27 15 27 11 0 15 -12 15 -50 0 -60 -18 -66 -49 -17 l-21 32 0 -32
c0 -18 -4 -33 -10 -33 -5 0 -10 23 -10 50 0 57 16 66 42 23z m144 2 c15 -23
15 -27 0 -50 -12 -19 -25 -25 -51 -25 l-35 0 0 50 0 50 35 0 c26 0 39 -6 51
-25z m-281 -25 c-3 -5 -19 -10 -36 -10 -16 0 -29 5 -29 10 0 6 16 10 36 10 21
0 33 -4 29 -10z"/>
<path d="M3320 3700 c0 -5 7 -10 15 -10 8 0 15 5 15 10 0 6 -7 10 -15 10 -8 0
-15 -4 -15 -10z"/>
<path d="M3404 3696 c-10 -26 4 -48 28 -44 17 2 23 10 23 28 0 18 -6 26 -23
28 -13 2 -25 -3 -28 -12z"/>
<path d="M3640 3680 c0 -27 3 -31 23 -28 16 2 22 10 22 28 0 18 -6 26 -22 28
-20 3 -23 -1 -23 -28z"/>
<path d="M3860 3700 c0 -5 7 -10 15 -10 8 0 15 5 15 10 0 6 -7 10 -15 10 -8 0
-15 -4 -15 -10z"/>
<path d="M3860 3660 c0 -5 7 -10 15 -10 8 0 15 5 15 10 0 6 -7 10 -15 10 -8 0
-15 -4 -15 -10z"/>
<path d="M3960 3680 c0 -5 5 -10 11 -10 5 0 7 5 4 10 -3 6 -8 10 -11 10 -2 0
-4 -4 -4 -10z"/>
<path d="M4520 3680 c0 -25 4 -31 18 -28 11 2 17 12 17 28 0 16 -6 26 -17 28
-14 3 -18 -3 -18 -28z"/>
<path d="M5788 3889 c-39 -15 -48 -54 -48 -209 0 -159 9 -194 52 -209 43 -15
1423 -15 1466 0 43 15 52 50 52 209 0 159 -9 194 -52 209 -41 14 -1431 14
-1470 0z m142 -199 c0 -29 4 -40 15 -40 8 0 15 -4 15 -10 0 -5 -11 -10 -25
-10 -23 0 -25 3 -25 50 0 28 5 50 10 50 6 0 10 -18 10 -40z m60 -10 c0 -27 -4
-50 -10 -50 -5 0 -10 23 -10 50 0 28 5 50 10 50 6 0 10 -22 10 -50z m44 18
l14 -33 13 33 c7 17 19 32 26 32 18 0 -20 -94 -39 -98 -8 -2 -19 12 -27 35 -8
21 -16 44 -18 51 -11 28 18 9 31 -20z m143 16 c3 -9 1 -25 -5 -35 -7 -11 -8
-20 -2 -24 15 -9 12 -25 -3 -25 -8 0 -19 10 -25 23 l-11 22 0 -22 c-2 -47 -21
-21 -21 27 0 49 1 50 30 50 19 0 33 -6 37 -16z m111 4 c7 -7 12 -24 12 -38 0
-33 -17 -50 -49 -50 -28 0 -61 26 -61 48 0 41 69 69 98 40z m90 -6 c3 -9 -3
-11 -22 -6 -34 8 -34 -4 0 -16 38 -15 30 -55 -10 -55 -16 0 -31 6 -34 13 -3 9
3 11 22 6 15 -3 26 -2 26 4 0 5 -11 13 -25 16 -24 6 -34 34 -18 50 11 11 56 2
61 -12z m136 2 c34 -34 8 -84 -45 -84 -28 0 -29 1 -29 50 0 49 1 50 29 50 16
0 37 -7 45 -16z m81 6 c-3 -5 -13 -10 -21 -10 -8 0 -14 -4 -14 -10 0 -5 7 -10
15 -10 8 0 15 -4 15 -10 0 -5 -7 -10 -15 -10 -8 0 -15 -4 -15 -10 0 -5 6 -10
14 -10 8 0 18 -4 21 -10 4 -6 -7 -10 -24 -10 -30 0 -31 1 -31 50 0 49 1 50 31
50 17 0 28 -4 24 -10z m133 -2 c7 -7 12 -24 12 -38 0 -35 -17 -50 -57 -50 -33
0 -33 0 -33 50 0 50 0 50 33 50 18 0 38 -5 45 -12z m96 -35 c17 -48 14 -65 -6
-45 -15 15 -48 16 -48 2 0 -5 -5 -10 -11 -10 -7 0 -9 10 -5 25 22 88 46 98 70
28z m108 28 c14 -20 14 -20 26 0 18 28 67 25 88 -6 15 -23 15 -27 0 -50 -21
-31 -70 -34 -88 -6 -12 20 -12 20 -26 0 -9 -12 -25 -19 -48 -19 l-34 0 0 50 0
50 34 0 c23 0 39 -7 48 -19z m206 0 c3 -10 -2 -12 -22 -7 -32 8 -35 -6 -3 -19
12 -6 22 -19 22 -30 0 -26 -59 -35 -69 -10 -5 14 -1 15 25 10 22 -5 29 -4 25
4 -4 6 -13 11 -20 11 -20 0 -37 25 -30 44 8 21 65 18 72 -3z"/>
<path d="M6130 3700 c0 -5 7 -10 15 -10 8 0 15 5 15 10 0 6 -7 10 -15 10 -8 0
-15 -4 -15 -10z"/>
<path d="M6224 3696 c-10 -26 4 -48 28 -44 17 2 23 10 23 28 0 18 -6 26 -23
28 -13 2 -25 -3 -28 -12z"/>
<path d="M6460 3680 c0 -23 4 -30 20 -30 16 0 20 7 20 30 0 23 -4 30 -20 30
-16 0 -20 -7 -20 -30z"/>
<path d="M6670 3680 c0 -27 3 -31 23 -28 16 2 22 10 22 28 0 18 -6 26 -22 28
-20 3 -23 -1 -23 -28z"/>
<path d="M6785 3680 c-3 -5 -1 -10 4 -10 6 0 11 5 11 10 0 6 -2 10 -4 10 -3 0
-8 -4 -11 -10z"/>
<path d="M6880 3680 c0 -25 4 -31 18 -28 11 2 17 12 17 28 0 16 -6 26 -17 28
-14 3 -18 -3 -18 -28z"/>
<path d="M6974 3696 c-10 -26 4 -48 28 -44 17 2 23 10 23 28 0 18 -6 26 -23
28 -13 2 -25 -3 -28 -12z"/>
<path d="M8348 3889 c-39 -15 -48 -54 -48 -209 0 -159 9 -194 52 -209 43 -15
1563 -15 1606 0 43 15 52 50 52 209 0 159 -9 194 -52 209 -41 14 -1571 14
-1610 0z m1197 -138 c-3 -6 -14 -11 -23 -11 -15 1 -15 2 2 15 21 16 32 13 21
-4z m-1055 -61 c0 -29 4 -40 15 -40 8 0 15 -4 15 -10 0 -5 -13 -10 -30 -10
-29 0 -30 1 -30 50 0 38 4 50 15 50 11 0 15 -11 15 -40z m60 -10 c0 -27 -4
-50 -10 -50 -5 0 -10 23 -10 50 0 28 5 50 10 50 6 0 10 -22 10 -50z m44 18
l14 -33 13 33 c7 17 19 32 26 32 18 0 -20 -94 -39 -98 -8 -2 -19 12 -27 35 -8
21 -16 44 -18 51 -11 28 18 9 31 -20z m143 16 c3 -9 1 -25 -5 -35 -7 -11 -8
-20 -2 -24 15 -9 12 -25 -3 -25 -8 0 -19 10 -25 23 l-11 22 0 -22 c-2 -47 -21
-21 -21 27 0 49 1 50 30 50 19 0 33 -6 37 -16z m115 -9 c18 -41 -3 -75 -47
-75 -44 0 -65 34 -47 75 9 20 19 25 47 25 28 0 38 -5 47 -25z m86 7 c3 -9 -3
-11 -22 -6 -34 8 -34 -4 0 -16 38 -15 30 -55 -10 -55 -16 0 -31 6 -34 13 -3 9
3 11 22 6 15 -3 26 -2 26 4 0 5 -11 13 -25 16 -24 6 -34 34 -18 50 11 11 56 2
61 -12z m138 -7 c15 -23 15 -27 0 -50 -12 -19 -25 -25 -51 -25 l-35 0 0 50 0
50 35 0 c26 0 39 -6 51 -25z m44 -25 c0 -27 -4 -50 -10 -50 -5 0 -10 23 -10
50 0 28 5 50 10 50 6 0 10 -22 10 -50z m80 35 c0 -12 -7 -14 -26 -9 -19 5 -25
4 -20 -5 4 -6 13 -11 20 -11 20 0 37 -25 30 -44 -8 -21 -65 -18 -72 3 -3 10 2
12 22 7 15 -4 26 -2 26 4 0 5 -6 10 -14 10 -20 0 -39 27 -32 45 7 20 66 20 66
0z m95 -2 c6 -17 7 -17 16 0 7 11 22 17 45 17 43 0 64 -34 46 -75 -9 -20 -19
-25 -47 -25 -31 0 -38 5 -49 31 -8 19 -16 27 -20 20 -4 -6 -16 -11 -27 -11
-12 0 -19 -7 -19 -20 0 -11 -4 -20 -10 -20 -5 0 -10 23 -10 50 l0 50 34 0 c23
0 36 -6 41 -17z m167 -10 l17 -28 1 28 c0 17 5 27 15 27 11 0 15 -12 15 -50 0
-60 -18 -66 -49 -17 l-21 32 0 -32 c0 -18 -4 -33 -10 -33 -5 0 -10 23 -10 50
0 57 16 66 42 23z m129 -10 l12 -38 12 34 c6 19 17 37 23 39 15 5 15 5 -4 -52
-20 -59 -41 -58 -63 4 l-16 45 -3 -47 c-2 -34 -7 -48 -18 -48 -10 0 -14 13
-14 50 0 49 1 50 29 50 25 0 31 -6 42 -37z m129 27 c0 -5 -9 -10 -20 -10 -11
0 -20 -4 -20 -10 0 -5 9 -10 20 -10 11 0 20 -4 20 -10 0 -5 -9 -10 -20 -10
-11 0 -20 -4 -20 -10 0 -5 9 -10 20 -10 11 0 20 -4 20 -10 0 -5 -13 -10 -30
-10 -29 0 -30 1 -30 50 0 49 1 50 30 50 17 0 30 -4 30 -10z m40 -40 c0 -27 -4
-50 -10 -50 -5 0 -10 23 -10 50 0 28 5 50 10 50 6 0 10 -22 10 -50z m80 35 c0
-12 -7 -14 -26 -9 -19 5 -25 4 -20 -5 4 -6 13 -11 20 -11 20 0 37 -25 30 -44
-8 -21 -65 -18 -72 3 -3 10 2 12 22 7 15 -4 26 -2 26 4 0 5 -6 10 -14 10 -20
0 -39 27 -32 45 7 20 66 20 66 0z"/>
<path d="M8690 3700 c0 -5 7 -10 15 -10 8 0 15 5 15 10 0 6 -7 10 -15 10 -8 0
-15 -4 -15 -10z"/>
<path d="M8776 3695 c-9 -25 4 -45 30 -45 20 0 24 5 24 30 0 25 -4 30 -24 30
-13 0 -26 -7 -30 -15z"/>
<path d="M9020 3680 c0 -25 4 -31 18 -28 11 2 17 12 17 28 0 16 -6 26 -17 28
-14 3 -18 -3 -18 -28z"/>
<path d="M9240 3700 c0 -5 7 -10 15 -10 8 0 15 5 15 10 0 6 -7 10 -15 10 -8 0
-15 -4 -15 -10z"/>
<path d="M9326 3695 c-9 -25 4 -45 30 -45 20 0 24 5 24 30 0 25 -4 30 -24 30
-13 0 -26 -7 -30 -15z"/>
<path d="M11048 3889 c-39 -15 -48 -54 -48 -209 0 -159 9 -194 52 -209 43 -15
1693 -15 1736 0 43 15 52 50 52 209 0 159 -9 194 -52 209 -41 14 -1701 14
-1740 0z m210 -171 c7 -7 12 -24 12 -38 0 -33 -17 -50 -50 -50 -33 0 -50 17
-50 50 0 33 17 50 50 50 14 0 31 -5 38 -12z m99 -4 c3 -9 1 -24 -4 -33 -7 -11
-7 -23 -1 -34 12 -23 -10 -23 -28 1 -13 16 -13 16 -14 0 0 -10 -7 -18 -15 -18
-11 0 -15 12 -15 50 l0 50 35 0 c24 0 38 -5 42 -16z m97 0 c34 -34 8 -84 -45
-84 -28 0 -29 1 -29 50 0 49 1 50 29 50 16 0 37 -7 45 -16z m86 6 c0 -5 -9
-10 -20 -10 -27 0 -25 -18 3 -23 l22 -4 -22 -8 c-28 -9 -30 -25 -3 -25 11 0
20 -4 20 -10 0 -5 -13 -10 -30 -10 -29 0 -30 1 -30 50 0 49 1 50 30 50 17 0
30 -4 30 -10z m59 -22 l21 -33 0 33 c0 17 5 32 10 32 6 0 10 -22 10 -50 0 -57
-9 -62 -39 -22 l-20 27 -1 -27 c0 -18 -5 -28 -15 -28 -11 0 -15 12 -15 50 0
60 18 66 49 18z m131 -20 c15 -39 16 -48 4 -48 -8 0 -14 5 -14 10 0 6 -9 10
-20 10 -11 0 -20 -4 -20 -10 0 -5 -7 -10 -16 -10 -9 0 -13 6 -10 13 2 6 10 29
17 50 16 50 36 45 59 -15z m97 36 c3 -9 1 -25 -5 -35 -7 -11 -8 -20 -2 -24 15
-9 12 -25 -3 -25 -8 0 -19 10 -25 23 l-11 22 0 -22 c-2 -47 -21 -21 -21 27 0
49 1 50 30 50 19 0 33 -6 37 -16z m128 -14 c0 -18 -6 -26 -22 -28 -15 -2 -23
-10 -23 -23 0 -10 -4 -19 -10 -19 -5 0 -10 23 -10 51 l0 50 33 -3 c27 -2 32
-7 32 -28z m103 18 c7 -7 12 -24 12 -38 0 -33 -17 -50 -50 -50 -33 0 -50 17
-50 50 0 33 17 50 50 50 14 0 31 -5 38 -12z m99 -4 c3 -9 1 -24 -4 -33 -7 -11
-7 -23 -1 -34 12 -23 -10 -23 -28 1 -13 16 -13 16 -14 0 0 -10 -7 -18 -15 -18
-11 0 -15 12 -15 50 l0 50 35 0 c24 0 38 -5 42 -16z m127 0 c8 -21 -11 -44
-35 -44 -12 0 -19 -7 -19 -20 0 -11 -4 -20 -10 -20 -5 0 -10 23 -10 50 l0 50
34 0 c22 0 36 -6 40 -16z m81 -36 c1 -53 -5 -59 -28 -25 l-16 22 0 -22 c-2
-47 -21 -21 -21 28 l0 50 33 -3 c31 -3 32 -4 32 -50z m85 42 c0 -5 -9 -10 -20
-10 -27 0 -25 -18 3 -23 l22 -4 -22 -8 c-28 -9 -30 -25 -3 -25 11 0 20 -4 20
-10 0 -5 -13 -10 -30 -10 -29 0 -30 1 -30 50 0 49 1 50 30 50 17 0 30 -4 30
-10z m100 -5 c10 -13 7 -14 -26 -12 -36 2 -39 0 -39 -23 0 -23 3 -25 40 -23
l40 2 -23 -18 c-13 -12 -18 -21 -10 -23 15 -5 1 -28 -18 -28 -8 0 -14 8 -14
18 0 9 -9 23 -20 30 -22 14 -27 61 -8 80 17 17 63 15 78 -3z m122 -10 c18 -41
-3 -75 -47 -75 -28 0 -38 5 -47 25 -18 41 3 75 47 75 28 0 38 -5 47 -25z"/>
<path d="M11194 3696 c-10 -26 4 -48 28 -44 17 2 23 10 23 28 0 18 -6 26 -23
28 -13 2 -25 -3 -28 -12z"/>
<path d="M11310 3700 c0 -5 7 -10 15 -10 8 0 15 5 15 10 0 6 -7 10 -15 10 -8
0 -15 -4 -15 -10z"/>
<path d="M11400 3680 c0 -23 4 -30 20 -30 16 0 20 7 20 30 0 23 -4 30 -20 30
-16 0 -20 -7 -20 -30z"/>
<path d="M11690 3680 c0 -5 5 -10 11 -10 5 0 7 5 4 10 -3 6 -8 10 -11 10 -2 0
-4 -4 -4 -10z"/>
<path d="M11780 3700 c0 -5 7 -10 15 -10 8 0 15 5 15 10 0 6 -7 10 -15 10 -8
0 -15 -4 -15 -10z"/>
<path d="M11910 3700 c0 -5 7 -10 15 -10 8 0 15 5 15 10 0 6 -7 10 -15 10 -8
0 -15 -4 -15 -10z"/>
<path d="M11994 3696 c-10 -26 4 -48 28 -44 17 2 23 10 23 28 0 18 -6 26 -23
28 -13 2 -25 -3 -28 -12z"/>
<path d="M12110 3700 c0 -5 7 -10 15 -10 8 0 15 5 15 10 0 6 -7 10 -15 10 -8
0 -15 -4 -15 -10z"/>
<path d="M12230 3700 c0 -5 7 -10 15 -10 8 0 15 5 15 10 0 6 -7 10 -15 10 -8
0 -15 -4 -15 -10z"/>
<path d="M12320 3700 c0 -5 7 -10 15 -10 8 0 15 5 15 10 0 6 -7 10 -15 10 -8
0 -15 -4 -15 -10z"/>
<path d="M12596 3695 c-9 -25 4 -45 30 -45 20 0 24 5 24 30 0 25 -4 30 -24 30
-13 0 -26 -7 -30 -15z"/>
<path d="M131 2839 c-15 -6 -21 -14 -17 -25 3 -9 6 -645 6 -1415 l0 -1399 35
0 35 0 0 350 c0 227 -4 350 -10 350 -5 0 -10 5 -10 11 0 5 5 7 10 4 7 -4 10
223 10 674 0 534 -3 680 -12 684 -10 4 -10 6 0 6 9 1 12 71 12 315 l0 314 -30
7 c-27 6 -30 10 -30 46 0 39 5 43 48 42 6 -1 12 5 12 13 0 8 -6 14 -14 14 -8
0 -16 4 -18 9 -2 5 -13 5 -27 0z"/>
<path d="M2924 2748 c-16 -17 -23 -28 -16 -24 8 5 12 0 12 -13 0 -14 -6 -21
-19 -21 -11 0 -23 -5 -26 -10 -4 -6 -10 -8 -15 -5 -7 5 -3 -55 5 -63 2 -2 24
0 49 3 l46 7 0 79 c0 44 -1 79 -3 79 -2 0 -16 -14 -33 -32z"/>
<path d="M2820 2645 c-6 -8 -9 -19 -5 -25 10 -15 24 -3 22 20 -2 24 -1 24 -17
5z"/>
<path d="M6912 2574 c-44 -31 -16 -104 40 -104 24 0 58 35 58 60 0 25 -34 60
-58 60 -10 0 -28 -7 -40 -16z m68 -19 c26 -32 -13 -81 -47 -59 -35 22 -23 74
17 74 10 0 23 -7 30 -15z"/>
<path d="M7745 2569 c5 -14 3 -19 -4 -15 -18 12 -51 -13 -51 -38 0 -31 17 -43
58 -43 24 0 31 4 27 14 -3 8 -5 35 -5 59 0 33 -4 44 -16 44 -11 0 -14 -6 -9
-21z m2 -45 c8 -21 -13 -42 -28 -27 -13 13 -5 43 11 43 6 0 13 -7 17 -16z"/>
<path d="M7220 2536 c0 -27 6 -48 15 -56 19 -16 34 -5 17 12 -15 15 -16 48 -2
48 6 0 5 8 -2 20 -20 31 -28 24 -28 -24z"/>
<path d="M2741 2562 c-1 -7 -12 -17 -26 -24 -13 -6 -22 -14 -20 -18 3 -4 -5
-10 -16 -13 -15 -4 -20 -11 -15 -22 3 -9 2 -14 -3 -11 -8 5 -64 -47 -62 -58 3
-19 -1 -24 -19 -19 -14 4 -20 0 -20 -10 0 -9 -9 -18 -19 -22 -18 -5 -20 -17
-23 -143 l-3 -137 130 -132 c72 -73 139 -133 148 -133 10 0 15 -5 12 -10 -7
-11 96 -120 113 -120 5 0 12 -9 15 -20 3 -11 10 -20 16 -20 7 0 11 141 11 460
0 432 -1 460 -17 459 -10 0 -13 -3 -6 -6 14 -5 13 -7 -45 -68 -18 -19 -43 -35
-55 -35 -18 0 -19 -2 -7 -10 8 -5 11 -10 5 -10 -24 0 -36 20 -37 63 0 42 -3
47 -23 47 -13 0 -26 6 -28 13 -4 9 -6 9 -6 -1z m69 -157 c-7 -8 -17 -15 -22
-15 -6 0 -5 7 2 15 7 8 17 15 22 15 6 0 5 -7 -2 -15z m-60 -5 c0 -5 -12 -10
-27 -9 l-28 1 25 8 c14 4 26 8 28 9 1 1 2 -3 2 -9z m20 -27 c0 -5 -13 -17 -28
-27 l-27 -19 24 26 c26 28 31 32 31 20z m-60 -63 c0 -5 -5 -10 -11 -10 -5 0
-7 5 -4 10 3 6 8 10 11 10 2 0 4 -4 4 -10z m-42 -40 c-7 -11 -15 -15 -17 -9
-2 6 3 15 10 20 20 12 21 11 7 -11z m27 -140 c4 -8 -8 -2 -24 14 -17 17 -31
31 -31 33 0 9 50 -34 55 -47z m30 -30 c3 -5 1 -10 -4 -10 -6 0 -11 5 -11 10 0
6 2 10 4 10 3 0 8 -4 11 -10z m-5 -50 c0 -5 -4 -10 -10 -10 -5 0 -10 5 -10 10
0 6 5 10 10 10 6 0 10 -4 10 -10z m155 -98 c-3 -3 -11 0 -18 7 -9 10 -8 11 6
5 10 -3 15 -9 12 -12z m20 -22 c3 -5 1 -10 -4 -10 -6 0 -11 5 -11 10 0 6 2 10
4 10 3 0 8 -4 11 -10z m39 -85 c-4 -8 -10 -15 -15 -15 -5 0 -9 7 -9 15 0 8 7
15 15 15 9 0 12 -6 9 -15z"/>
<path d="M412 2535 c-55 -46 -46 -137 17 -169 38 -20 64 -20 103 0 39 20 24
42 -19 27 -37 -13 -77 1 -92 33 -16 37 -14 52 14 79 29 30 59 32 82 6 19 -23
33 -19 33 9 0 45 -91 55 -138 15z"/>
<path d="M1600 2546 c0 -9 7 -16 16 -16 9 0 14 5 12 12 -6 18 -28 21 -28 4z"/>
<path d="M7064 2536 c3 -11 6 -31 6 -44 0 -13 4 -20 10 -17 6 3 10 17 10 30 0
13 5 27 10 30 18 11 11 20 -16 21 -22 2 -25 -1 -20 -20z"/>
<path d="M7135 2536 c-8 -13 -13 -31 -9 -40 8 -21 52 -32 67 -17 8 8 4 11 -16
11 -15 0 -27 5 -27 10 0 6 11 10 25 10 27 0 33 18 13 38 -18 18 -36 14 -53
-12z m45 -6 c0 -5 -7 -10 -15 -10 -8 0 -15 5 -15 10 0 6 7 10 15 10 8 0 15 -4
15 -10z"/>
<path d="M7286 2541 c-23 -26 -13 -59 21 -67 43 -11 69 38 37 70 -21 21 -37
20 -58 -3z m52 -24 c4 -20 -25 -34 -40 -19 -15 15 -1 44 19 40 10 -2 19 -11
21 -21z"/>
<path d="M7379 2550 c-1 -3 0 -18 1 -35 2 -38 20 -59 20 -23 0 28 23 53 40 43
5 -3 10 -20 10 -38 0 -35 16 -26 22 12 4 32 28 40 28 9 0 -26 16 -56 25 -47 3
3 2 24 -3 45 l-8 39 -67 0 c-37 0 -67 -2 -68 -5z"/>
<path d="M7566 2547 c-38 -27 2 -95 42 -71 24 16 28 55 6 71 -10 7 -21 13 -24
13 -3 0 -14 -6 -24 -13z m42 -35 c3 -17 -2 -22 -17 -22 -14 0 -21 6 -21 18 0
38 33 41 38 4z"/>
<path d="M7806 2541 c-23 -26 -13 -59 21 -67 43 -11 69 38 37 70 -21 21 -37
20 -58 -3z m52 -24 c4 -20 -25 -34 -40 -19 -15 15 -1 44 19 40 10 -2 19 -11
21 -21z"/>
<path d="M7956 2547 c-37 -27 -1 -90 40 -72 17 8 17 9 -6 13 -29 5 -41 19 -33
39 4 10 14 12 29 9 27 -7 33 8 8 18 -20 8 -17 8 -38 -7z"/>
<path d="M8043 2553 c-21 -8 -14 -25 7 -18 11 3 20 2 20 -3 0 -6 -12 -13 -26
-16 -41 -11 -27 -41 19 -42 l37 -1 -6 36 c-8 45 -22 56 -51 44z m27 -53 c0 -5
-7 -10 -16 -10 -8 0 -12 5 -9 10 3 6 10 10 16 10 5 0 9 -4 9 -10z"/>
<path d="M8115 2543 c3 -8 5 -28 5 -44 0 -40 18 -37 22 4 2 20 8 32 18 32 10
0 16 -12 18 -32 4 -44 22 -42 22 1 0 40 -11 50 -58 52 -25 1 -32 -3 -27 -13z"/>
<path d="M8224 2543 c-8 -8 -14 -20 -14 -27 0 -18 37 -49 49 -41 6 3 11 1 11
-4 0 -6 -9 -11 -20 -11 -11 0 -20 -4 -20 -10 0 -15 50 -12 54 3 3 6 7 33 10
58 5 45 5 46 -25 46 -17 0 -37 -7 -45 -14z m49 -15 c6 -19 -3 -38 -18 -38 -15
0 -28 27 -19 41 8 13 32 11 37 -3z"/>
<path d="M8337 2553 c-13 -13 -7 -21 13 -16 11 3 20 1 20 -5 0 -6 -10 -12 -22
-14 -15 -2 -23 -10 -23 -23 0 -16 7 -20 33 -22 30 -1 32 1 32 31 0 43 -31 72
-53 49z m28 -53 c-3 -5 -10 -10 -16 -10 -5 0 -9 5 -9 10 0 6 7 10 16 10 8 0
12 -4 9 -10z"/>
<path d="M8426 2547 c-37 -27 -1 -90 40 -72 17 8 15 9 -9 13 -22 3 -28 8 -25
25 2 16 9 21 26 20 25 -3 30 12 6 21 -20 8 -17 8 -38 -7z"/>
<path d="M8506 2541 c-11 -12 -15 -27 -11 -40 7 -24 43 -37 58 -22 8 8 5 11
-11 11 -12 0 -22 5 -22 10 0 6 11 10 25 10 30 0 34 25 6 40 -25 13 -25 13 -45
-9z m39 -11 c3 -5 -1 -10 -9 -10 -9 0 -16 5 -16 10 0 6 4 10 9 10 6 0 13 -4
16 -10z"/>
<path d="M8589 2556 c-11 -11 4 -86 16 -86 10 0 12 10 8 38 -6 37 -15 56 -24
48z"/>
<path d="M8633 2546 c4 -10 7 -31 7 -47 0 -16 5 -29 10 -29 6 0 10 13 10 30 0
17 7 33 18 39 15 9 15 10 0 11 -9 0 -24 3 -34 7 -14 5 -16 3 -11 -11z"/>
<path d="M8709 2539 c-18 -18 -19 -23 -6 -42 8 -12 22 -23 31 -25 42 -9 64 58
27 78 -26 13 -28 13 -52 -11z m49 -22 c4 -21 -27 -35 -38 -17 -12 19 0 42 19
38 9 -2 17 -11 19 -21z"/>
<path d="M620 2500 c-14 -3 -26 -14 -28 -24 -3 -16 0 -18 19 -12 41 12 54 11
54 -4 0 -8 -14 -17 -33 -21 -44 -9 -56 -22 -48 -53 7 -30 44 -43 74 -27 13 7
22 7 30 -1 21 -21 31 2 25 55 -3 29 -10 59 -14 68 -10 19 -44 28 -79 19z m48
-97 c-4 -22 -48 -31 -48 -10 0 19 10 27 32 27 13 0 18 -6 16 -17z"/>
<path d="M816 2495 c-14 -8 -26 -10 -26 -4 0 5 -11 9 -25 9 -25 0 -33 -18 -16
-35 6 -6 11 -32 13 -60 4 -63 21 -65 28 -3 7 54 19 72 46 66 15 -2 20 -14 22
-55 2 -36 8 -53 19 -57 22 -9 39 9 25 26 -6 8 -12 35 -14 62 -4 57 -27 74 -72
51z"/>
<path d="M975 2502 c-29 -6 -45 -31 -45 -72 0 -48 28 -74 70 -68 24 4 30 1 28
-11 -2 -10 -17 -18 -42 -21 -22 -3 -41 -10 -43 -16 -5 -16 52 -25 81 -14 35
13 46 40 46 109 0 33 5 63 10 66 19 12 0 24 -34 23 -18 -1 -37 1 -42 4 -5 2
-18 3 -29 0z m50 -72 c0 -28 -4 -36 -22 -38 -26 -4 -47 29 -38 59 5 15 14 19
33 17 24 -3 27 -8 27 -38z"/>
<path d="M1145 2503 c-19 -5 -35 -20 -35 -35 0 -12 35 -9 48 4 9 9 15 9 23 1
16 -16 2 -33 -26 -33 -26 0 -55 -24 -55 -45 0 -34 48 -55 79 -36 9 6 22 6 31
1 23 -12 49 5 32 22 -6 6 -12 31 -12 54 0 54 -33 79 -85 67z m45 -98 c0 -9 -7
-18 -16 -22 -18 -7 -39 11 -30 26 11 17 46 13 46 -4z"/>
<path d="M1325 2502 c-87 -18 -73 -151 16 -152 31 0 65 23 55 39 -5 8 -13 8
-27 0 -28 -14 -58 -2 -65 27 -10 38 12 56 58 49 38 -7 50 3 26 22 -19 15 -41
20 -63 15z"/>
<path d="M1473 2502 c-53 -8 -70 -86 -28 -127 26 -27 73 -33 93 -13 21 21 13
30 -18 23 -19 -4 -36 -2 -45 5 -26 22 -16 30 35 30 41 0 50 3 50 18 0 42 -40
72 -87 64z m37 -37 c11 -13 8 -15 -20 -15 -28 0 -31 2 -20 15 7 8 16 15 20 15
4 0 13 -7 20 -15z"/>
<path d="M1837 2499 c-86 -23 -66 -149 23 -149 38 0 80 39 80 73 0 29 -32 73
-57 79 -10 3 -31 1 -46 -3z m53 -43 c28 -35 -11 -93 -47 -70 -19 12 -28 46
-19 70 7 18 50 18 66 0z"/>
<path d="M1580 2487 c0 -7 4 -17 9 -22 6 -6 11 -32 13 -59 3 -51 12 -62 38
-46 12 7 12 12 2 22 -6 6 -12 36 -12 65 0 50 -1 53 -25 53 -14 0 -25 -6 -25
-13z"/>
<path d="M1660 2491 c0 -6 5 -13 10 -16 6 -3 10 -31 10 -61 0 -30 5 -54 10
-54 6 0 13 0 18 0 4 0 9 21 12 47 4 37 10 50 28 58 12 5 22 15 22 22 0 17 -37
17 -44 1 -5 -10 -7 -10 -12 0 -7 14 -54 17 -54 3z"/>
<path d="M9320 2345 c-85 -86 -157 -158 -159 -160 -5 -6 309 -318 315 -313 2
3 3 145 2 317 l-3 312 -155 -156z"/>
<path d="M6930 2386 c0 -9 11 -16 28 -18 26 -3 27 -6 30 -61 3 -60 -8 -87 -35
-87 -8 0 -17 9 -20 20 -6 22 -43 28 -43 7 0 -29 31 -57 65 -57 56 0 66 19 63
119 l-3 86 -42 3 c-33 2 -43 0 -43 -12z"/>
<path d="M7572 2384 c-43 -30 -24 -78 46 -116 22 -11 30 -22 26 -32 -7 -18
-36 -21 -64 -6 -26 14 -39 -9 -15 -27 26 -18 80 -16 100 3 10 10 15 29 13 48
-2 25 -11 35 -43 52 -22 11 -41 28 -43 37 -5 24 25 32 47 13 22 -20 41 -21 41
-2 0 41 -66 60 -108 30z"/>
<path d="M8012 2386 c1 -10 8 -17 13 -17 15 1 12 24 -3 29 -9 3 -13 -2 -10
-12z"/>
<path d="M8280 2361 c0 -11 -6 -21 -12 -24 -10 -3 -10 -9 0 -26 6 -11 12 -39
12 -61 0 -29 5 -42 19 -50 44 -23 73 2 31 28 -13 8 -20 23 -20 42 0 19 7 33
20 40 11 6 20 15 20 20 0 6 -9 10 -20 10 -13 0 -20 7 -20 20 0 11 -7 20 -15
20 -8 0 -15 -9 -15 -19z"/>
<path d="M7077 2333 c-4 -3 -7 -12 -7 -20 0 -10 10 -12 40 -7 33 5 40 4 40
-10 0 -11 -9 -16 -27 -16 -35 -1 -63 -21 -63 -47 0 -32 20 -41 83 -41 55 1 78
10 57 23 -5 3 -10 26 -10 50 0 26 -6 50 -16 59 -15 16 -84 22 -97 9z m73 -87
c0 -7 -7 -19 -15 -26 -12 -10 -18 -10 -31 1 -14 12 -14 14 2 26 23 17 44 17
44 -1z"/>
<path d="M7210 2333 c0 -4 12 -38 27 -75 21 -56 30 -68 49 -68 18 0 27 12 49
71 15 38 25 73 22 76 -13 13 -36 -8 -47 -44 -19 -58 -26 -59 -45 -4 -12 38
-22 51 -36 51 -10 0 -19 -3 -19 -7z"/>
<path d="M7397 2333 c-4 -3 -7 -12 -7 -20 0 -10 10 -12 40 -7 33 5 40 4 40
-10 0 -11 -9 -16 -28 -16 -47 0 -80 -52 -49 -78 6 -6 38 -10 69 -10 l57 1 -6
51 c-8 73 -25 96 -72 96 -21 0 -41 -3 -44 -7z m73 -88 c0 -23 -35 -38 -50 -21
-9 11 -7 17 7 25 26 15 43 13 43 -4z"/>
<path d="M7731 2321 c-28 -28 -28 -84 -1 -111 23 -23 91 -27 109 -7 16 20 5
26 -39 20 -32 -5 -40 -2 -50 17 -17 32 1 70 34 70 14 0 28 -4 31 -10 11 -18
26 -10 23 13 -4 32 -78 37 -107 8z"/>
<path d="M7860 2325 c0 -8 5 -15 10 -15 6 0 10 -27 10 -60 0 -53 2 -60 20 -60
17 0 20 7 20 44 0 42 18 76 41 76 5 0 9 7 9 15 0 17 -21 20 -37 4 -8 -8 -13
-8 -17 0 -11 17 -56 14 -56 -4z"/>
<path d="M7997 2278 c2 -35 6 -69 8 -75 6 -19 55 -16 55 2 0 8 -4 15 -10 15
-6 0 -10 27 -10 60 0 57 -1 60 -24 60 -23 0 -24 -2 -19 -62z"/>
<path d="M8070 2324 c0 -8 5 -14 10 -14 6 0 10 -37 10 -91 0 -81 2 -90 18 -87
11 2 18 14 20 35 3 25 7 30 22 26 72 -19 119 76 65 131 -20 20 -145 20 -145 0z
m123 -35 c5 -9 7 -28 3 -43 -5 -22 -11 -27 -34 -24 -21 2 -28 9 -30 31 -2 16
-1 35 2 44 7 18 46 13 59 -8z"/>
<path d="M1030 2260 c-36 -36 -22 -67 52 -113 17 -11 25 -23 22 -32 -7 -18
-45 -20 -62 -3 -9 9 -15 9 -24 -1 -31 -30 67 -56 106 -28 12 9 17 23 14 47 -2
29 -10 39 -45 58 -48 26 -57 52 -19 52 14 0 28 -4 31 -10 9 -15 35 -12 35 4 0
20 -39 46 -67 46 -13 0 -32 -9 -43 -20z"/>
<path d="M410 2255 c0 -9 9 -15 25 -15 26 0 26 -1 23 -67 -2 -56 -6 -68 -21
-71 -12 -3 -20 4 -24 17 -6 23 -43 30 -43 8 0 -29 31 -57 64 -57 53 0 66 24
66 118 l0 82 -45 0 c-33 0 -45 -4 -45 -15z"/>
<path d="M1460 2254 c0 -9 5 -14 12 -12 18 6 21 28 4 28 -9 0 -16 -7 -16 -16z"/>
<path d="M1715 2228 c-10 -21 -12 -34 -5 -36 5 -2 10 -23 10 -47 0 -47 19 -75
51 -75 22 0 26 25 4 34 -10 3 -15 19 -15 46 0 29 4 40 15 40 8 0 15 7 15 15 0
8 -6 15 -14 15 -7 0 -16 9 -19 20 -8 29 -23 25 -42 -12z"/>
<path d="M552 2208 c-7 -7 -12 -16 -12 -20 0 -11 38 -10 45 2 8 13 35 1 35
-16 0 -8 -10 -14 -23 -14 -50 0 -86 -52 -54 -78 16 -14 125 -13 134 1 4 6 1
13 -5 15 -7 2 -12 22 -12 46 0 29 -6 48 -18 59 -22 20 -73 22 -90 5z m68 -82
c0 -18 -27 -39 -40 -31 -14 9 -13 32 3 38 23 10 37 7 37 -7z"/>
<path d="M690 2207 c0 -7 10 -40 23 -72 19 -49 27 -60 46 -60 18 0 27 12 46
60 14 33 25 66 25 73 0 18 -30 14 -37 -5 -3 -10 -12 -34 -21 -53 l-14 -35 -14
39 c-15 42 -31 66 -45 66 -5 0 -9 -6 -9 -13z"/>
<path d="M873 2213 c-28 -11 -13 -32 20 -30 42 3 51 -15 11 -23 -45 -10 -54
-18 -54 -50 0 -33 11 -38 88 -38 38 0 52 4 52 14 0 8 -4 14 -10 14 -5 0 -10
22 -10 50 0 38 -4 52 -19 60 -20 10 -57 12 -78 3z m62 -82 c8 -14 -23 -41 -40
-35 -20 8 -19 21 3 33 22 13 29 13 37 2z"/>
<path d="M1191 2201 c-28 -28 -28 -84 -1 -111 29 -29 110 -25 110 5 0 9 -11
12 -39 8 -33 -5 -41 -2 -51 16 -23 45 17 85 59 59 25 -15 39 -3 25 20 -17 26
-78 28 -103 3z"/>
<path d="M1327 2158 c6 -79 9 -88 28 -88 11 0 15 11 15 45 0 36 4 47 25 61 14
9 25 23 25 30 0 17 -5 17 -30 4 -13 -7 -21 -7 -25 0 -3 5 -14 10 -25 10 -16 0
-18 -7 -13 -62z"/>
<path d="M1440 2206 c0 -8 5 -18 10 -21 6 -3 10 -31 10 -61 0 -51 1 -54 25
-54 16 0 25 6 25 15 0 8 -4 15 -10 15 -5 0 -10 26 -12 58 -3 50 -6 57 -25 60
-15 2 -23 -2 -23 -12z"/>
<path d="M1523 2206 c-4 -5 -1 -12 5 -14 8 -2 12 -34 12 -94 0 -80 2 -89 18
-86 11 2 18 14 20 34 3 28 6 30 33 26 43 -6 69 21 69 73 0 58 -20 74 -93 72
-32 -1 -61 -6 -64 -11z m117 -30 c26 -32 -7 -87 -44 -73 -16 6 -23 66 -9 80
11 12 40 8 53 -7z"/>
<path d="M8370 1374 c-46 -20 -68 -41 -91 -86 l-19 -38 -65 0 c-58 0 -65 -2
-65 -19 0 -16 -9 -21 -47 -26 -167 -21 -278 -70 -376 -166 -81 -81 -125 -167
-162 -318 -26 -106 -27 -131 -2 -131 19 0 107 -95 107 -115 0 -31 -21 -55 -70
-80 -112 -57 -104 -150 18 -217 69 -37 45 -113 -43 -135 -27 -7 -56 -19 -64
-28 -14 -13 2 -15 157 -15 l172 0 -27 53 c-28 52 -28 53 -28 252 0 228 -5 218
91 195 46 -11 56 -11 90 6 30 15 43 29 55 62 l16 44 154 -1 c138 -2 156 -4
175 -21 15 -15 35 -20 82 -20 62 0 62 0 62 -29 0 -25 -6 -31 -35 -41 -38 -13
-85 -62 -85 -89 0 -10 -9 -30 -21 -45 -43 -54 -149 -19 -149 49 0 26 34 67 75
92 19 10 19 11 2 18 -25 10 -73 -12 -94 -44 -15 -21 -19 -52 -21 -176 -2 -83
-8 -156 -14 -163 -17 -19 -66 -15 -80 8 -7 11 -18 20 -25 20 -23 0 -14 -38 13
-59 38 -30 80 -27 115 8 28 28 29 33 29 120 l0 90 35 -15 c19 -7 45 -14 58
-14 41 0 90 41 108 90 15 40 56 80 82 80 4 0 7 -69 7 -153 l0 -154 -38 -54
c-21 -30 -49 -58 -65 -63 -23 -8 -31 -6 -55 17 -18 17 -39 27 -58 27 -36 -1
-137 -35 -142 -48 -6 -19 26 -20 79 -1 72 25 79 24 92 -11 l11 -30 382 0 c435
0 402 -7 434 92 l17 53 72 5 c111 8 111 9 111 237 l0 185 -29 29 c-27 26 -36
29 -95 29 l-66 0 0 155 0 154 68 3 67 3 0 150 0 150 -68 3 c-63 3 -69 5 -78
30 -15 39 -48 72 -94 93 -36 17 -69 19 -335 18 -240 0 -301 -3 -330 -15z m660
-39 c16 -8 39 -29 52 -47 22 -31 23 -42 23 -180 0 -163 -5 -178 -75 -225 -51
-36 -60 -31 -60 32 0 59 -13 75 -65 75 -52 0 -65 -16 -65 -75 l0 -55 -87 0
-88 0 -23 48 c-48 103 -177 217 -292 258 -47 17 -50 20 -50 53 0 42 26 85 66
112 27 17 52 19 332 19 248 0 308 -3 332 -15z m-875 -275 c13 -25 22 -30 50
-30 40 0 41 -2 18 -36 -15 -24 -15 -27 0 -54 23 -38 22 -40 -15 -40 -25 0 -39
-8 -59 -32 l-27 -32 -16 32 c-14 28 -22 32 -56 32 -45 0 -46 1 -23 36 14 21
14 31 5 58 -17 45 -16 46 26 46 32 0 41 5 50 25 15 33 28 32 47 -5z m950 -847
l-5 -23 -285 0 -285 0 0 28 c0 20 8 32 30 44 46 26 72 75 67 126 -3 24 -12 51
-21 61 -9 10 -16 23 -16 29 0 22 62 82 84 82 12 0 30 6 40 13 18 13 18 17 -3
123 -11 60 -21 112 -21 117 0 4 34 7 75 7 l75 0 0 -46 c0 -31 -7 -54 -20 -71
-29 -37 -29 -189 -1 -225 13 -16 21 -44 23 -79 l3 -54 60 0 60 0 3 57 c2 34 9
61 17 68 22 18 21 222 0 240 -9 8 -15 30 -15 60 0 46 1 47 40 59 22 6 52 22
67 35 l28 24 3 -326 c1 -180 0 -337 -3 -349z m-1267 596 c-1 -35 -28 -52 -60
-37 -32 15 -34 61 -4 74 32 14 65 -5 64 -37z m622 31 c0 -5 7 -10 15 -10 22 0
19 -53 -4 -67 -30 -19 -68 3 -68 39 0 20 5 28 19 28 10 0 18 5 18 10 0 6 5 10
10 10 6 0 10 -4 10 -10z m-248 -169 c16 -7 -11 -10 -92 -9 -111 0 -113 1 -75
14 42 14 124 12 167 -5z m738 -83 l0 -73 -50 3 -50 4 0 59 c0 49 3 59 18 60
14 0 14 2 -3 9 -15 6 -6 9 33 9 l52 1 0 -72z m332 -15 c13 -12 18 -30 18 -69
0 -29 -4 -56 -10 -59 -17 -11 -89 34 -115 72 -40 60 -35 73 32 73 38 0 62 -5
75 -17z m-24 -164 l42 -12 0 -88 c0 -110 -14 -129 -97 -129 l-53 0 0 146 0
146 33 -25 c18 -14 52 -31 75 -38z m-689 25 c34 -44 25 -111 -19 -134 -19 -10
-20 -7 -20 75 0 47 4 85 9 85 5 0 19 -12 30 -26z"/>
<path d="M1412 1300 c-138 -37 -260 -110 -343 -203 -89 -102 -136 -210 -174
-404 -15 -76 -16 -94 -6 -107 8 -9 18 -16 23 -16 18 0 118 -111 118 -130 0
-40 -23 -69 -67 -86 -63 -24 -103 -74 -103 -127 0 -58 29 -100 91 -133 41 -22
56 -36 63 -62 l9 -32 80 0 c78 0 79 0 72 23 -4 12 -10 108 -12 214 -5 186 -4
192 17 213 20 20 28 21 104 15 118 -10 165 18 184 112 l8 38 174 3 c173 2 174
2 199 -22 23 -22 37 -25 106 -28 l80 -3 3 -37 c3 -35 1 -37 -52 -61 -56 -26
-96 -72 -96 -110 0 -10 -13 -32 -29 -48 -39 -38 -87 -39 -130 -3 -57 48 -36
124 42 153 19 7 27 17 25 29 -8 42 -94 15 -128 -41 -18 -28 -20 -51 -20 -197
0 -188 -7 -213 -58 -218 -24 -3 -38 3 -57 24 -40 43 -74 15 -39 -34 13 -19 24
-22 89 -22 70 0 76 2 92 27 13 20 19 52 21 126 4 87 6 98 20 91 10 -3 40 -9
69 -11 65 -7 113 20 137 75 31 69 41 85 69 106 45 33 49 17 45 -171 -3 -135
-7 -174 -21 -200 -23 -42 -22 -43 17 -43 30 0 34 4 40 31 3 17 6 53 6 80 0 45
2 49 40 70 90 51 112 162 49 243 -20 26 -20 26 -1 53 33 45 85 90 113 97 15 3
29 12 32 20 12 30 -63 297 -106 380 -73 142 -200 247 -370 309 -72 26 -98 30
-217 33 -111 3 -148 1 -208 -16z m168 -44 c0 -9 -30 -14 -35 -6 -4 6 3 10 14
10 12 0 21 -2 21 -4z m-71 -10 c-2 -2 -15 -9 -29 -16 -23 -12 -24 -12 -11 3 7
10 20 17 29 17 8 0 13 -2 11 -4z m-99 -26 c20 -6 21 -8 5 -8 -11 0 -29 3 -40
8 -25 11 1 11 35 0z m207 4 c-3 -3 -12 -4 -19 -1 -8 3 -5 6 6 6 11 1 17 -2 13
-5z m258 -22 c15 -11 16 -13 3 -9 -12 4 -15 2 -11 -9 3 -7 0 -14 -6 -14 -6 0
-11 8 -11 18 0 11 -10 24 -22 31 -23 11 -23 11 2 5 14 -4 34 -13 45 -22z
m-542 1 c-13 -8 -23 -24 -23 -35 0 -10 -5 -16 -10 -13 -6 4 -8 11 -5 16 4 5 0
9 -7 9 -7 1 3 9 22 20 42 23 53 25 23 3z m354 -26 c18 -22 18 -22 -3 -4 -11 9
-26 17 -32 17 -6 0 -13 4 -16 9 -12 18 33 -2 51 -22z m68 15 c-3 -3 -11 0 -18
7 -9 10 -8 11 6 5 10 -3 15 -9 12 -12z m45 -17 c0 -20 -5 -25 -25 -25 -30 0
-31 4 -7 29 24 26 32 25 32 -4z m160 -20 c0 -2 -6 -2 -13 1 -10 4 -12 -7 -7
-51 l6 -55 -30 1 c-17 1 -24 3 -15 6 13 3 15 12 9 43 -5 29 -3 43 6 51 8 6 11
16 8 21 -4 6 3 5 15 -1 11 -7 21 -14 21 -16z m-705 -4 c-3 -6 -11 -8 -17 -5
-6 4 -5 9 3 15 16 10 23 4 14 -10z m-35 -34 c0 -7 -4 -6 -10 3 -8 13 -10 12
-10 -4 0 -16 -3 -17 -12 -8 -10 10 -10 15 2 22 16 10 30 4 30 -13z m438 -13
c50 -56 12 -144 -63 -144 -68 0 -116 78 -78 128 42 57 98 63 141 16z m91 -53
l-2 -46 -6 50 c-4 28 -10 57 -14 65 -5 8 -1 6 7 -4 10 -13 15 -37 15 -65z
m-385 -4 c3 -14 10 -17 25 -12 20 6 28 -4 15 -18 -8 -7 -64 23 -64 35 0 3 -15
5 -32 4 -18 -2 -25 -1 -15 1 9 2 17 10 17 18 0 20 48 -5 54 -28z m679 13 c-24
-23 -39 -14 -17 11 9 10 21 16 26 13 5 -3 1 -14 -9 -24z m-863 -14 c0 -19 -4
-23 -20 -19 -25 7 -26 19 -2 32 23 14 22 14 22 -13z m79 10 c-2 -2 -15 -9 -29
-16 -23 -12 -24 -12 -11 3 7 10 20 17 29 17 8 0 13 -2 11 -4z m726 -16 c3 -5
2 -10 -4 -10 -5 0 -13 5 -16 10 -3 6 -2 10 4 10 5 0 13 -4 16 -10z m136 -32
c8 -15 8 -18 0 -14 -6 4 -16 16 -22 28 -8 15 -8 18 0 14 6 -4 16 -16 22 -28z
m-1031 -13 c0 -17 -4 -23 -15 -19 -11 5 -12 11 -4 25 13 26 19 24 19 -6z m72
-17 c-9 -9 -12 -7 -12 12 0 19 3 21 12 12 9 -9 9 -15 0 -24z m189 -17 c16 -16
29 -39 29 -51 0 -35 -27 -76 -60 -90 -39 -16 -85 1 -105 41 -22 42 -18 67 14
100 40 39 82 39 122 0z m601 18 c28 -15 50 -72 39 -101 -36 -95 -171 -76 -171
24 0 69 70 110 132 77z m116 -50 c-1 -37 -7 -31 -18 16 -7 29 -6 34 5 25 8 -6
13 -25 13 -41z m81 25 c6 -15 10 -29 7 -31 -2 -2 -7 5 -11 18 -6 17 -9 19 -16
8 -6 -10 -9 -8 -9 9 0 30 14 28 29 -4z m-1096 1 c-3 -9 -8 -14 -10 -11 -3 3
-2 9 2 15 9 16 15 13 8 -4z m717 5 c0 -5 -5 -10 -11 -10 -5 0 -7 5 -4 10 3 6
8 10 11 10 2 0 4 -4 4 -10z m-8 -81 c3 -26 0 -35 -9 -32 -7 3 -10 19 -8 41 6
68 10 66 17 -9z m-740 19 c-8 -8 -9 -4 -5 13 4 13 8 18 11 10 2 -7 -1 -18 -6
-23z m107 -32 c-9 -8 -10 -7 -5 7 3 10 7 26 7 35 1 9 4 6 6 -7 3 -13 -1 -28
-8 -35z m575 45 c3 -5 -1 -11 -9 -14 -9 -4 -12 -1 -8 9 6 16 10 17 17 5z
m-204 -11 c0 -5 -2 -10 -4 -10 -3 0 -8 5 -11 10 -3 6 -1 10 4 10 6 0 11 -4 11
-10z m-490 -40 c-6 -11 -12 -20 -14 -20 -2 0 -2 9 1 20 3 11 9 20 15 20 5 0 4
-9 -2 -20z m620 0 c0 -13 7 -20 19 -20 10 0 21 9 24 20 3 11 10 20 16 20 6 0
11 -9 11 -20 0 -11 5 -20 10 -20 11 0 14 -33 3 -43 -3 -4 -15 0 -25 10 -11 9
-18 11 -18 5 0 -13 -29 -16 -54 -6 -16 6 -22 54 -9 67 12 13 23 7 23 -13z
m570 -11 c0 -6 -4 -7 -10 -4 -5 3 -10 11 -10 16 0 6 5 7 10 4 6 -3 10 -11 10
-16z m-58 -13 c14 -21 2 -31 -40 -34 -37 -3 -41 -1 -35 15 11 33 25 44 47 37
12 -4 24 -12 28 -18z m-986 -13 c-3 -8 -2 -11 3 -8 5 3 12 1 16 -5 4 -6 -6
-10 -24 -10 -35 0 -36 2 -19 29 13 22 32 17 24 -6z m-167 -30 c-15 -56 -20
-63 -13 -18 6 39 11 55 19 55 2 0 -1 -17 -6 -37z m121 27 c0 -5 -6 -10 -14
-10 -8 0 -18 5 -21 10 -3 6 3 10 14 10 12 0 21 -4 21 -10z m320 0 c0 -5 -5
-10 -11 -10 -5 0 -7 5 -4 10 3 6 8 10 11 10 2 0 4 -4 4 -10z m45 -10 c3 -5 -1
-10 -9 -10 -9 0 -16 5 -16 10 0 6 4 10 9 10 6 0 13 -4 16 -10z m549 -12 c-22
-27 -36 -38 -47 -38 -7 0 54 59 62 60 2 0 -4 -10 -15 -22z m186 -5 c0 -22 -2
-25 -10 -13 -13 20 -13 40 0 40 6 0 10 -12 10 -27z m-822 -13 c-7 -11 -16 -20
-21 -20 -4 0 -5 -4 -2 -10 4 -6 -1 -7 -10 -3 -14 5 -12 10 12 29 35 29 36 29
21 4z m118 11 c-4 -5 -1 -11 6 -13 8 -3 6 -7 -5 -11 -12 -5 -17 -1 -17 13 0
11 5 20 11 20 5 0 8 -4 5 -9z m-301 -11 c3 -5 1 -10 -4 -10 -6 0 -11 5 -11 10
0 6 2 10 4 10 3 0 8 -4 11 -10z m340 0 c3 -5 1 -10 -4 -10 -6 0 -11 5 -11 10
0 6 2 10 4 10 3 0 8 -4 11 -10z m-92 -14 c3 -8 0 -17 -7 -19 -10 -4 -12 1 -9
14 6 23 9 24 16 5z m287 -6 c18 -12 2 -12 -25 0 -13 6 -15 9 -5 9 8 0 22 -4
30 -9z m97 4 c-3 -3 -12 -4 -19 -1 -8 3 -5 6 6 6 11 1 17 -2 13 -5z m-527 -25
c0 -6 9 -8 20 -4 11 3 20 2 20 -4 0 -5 -16 -15 -35 -21 -31 -10 -35 -16 -35
-46 0 -19 -4 -34 -10 -34 -6 0 -10 27 -10 60 0 57 1 60 25 60 14 0 25 -5 25
-11z m659 -3 c38 -13 45 -24 32 -44 -7 -11 -12 -11 -28 -1 -18 11 -24 9 -47
-14 -15 -15 -35 -27 -44 -27 -13 1 -11 4 7 14 16 9 20 15 11 18 -19 6 -3 28
21 28 10 0 19 4 19 9 0 11 -29 23 -40 16 -5 -3 -11 -1 -15 5 -8 14 42 11 84
-4z m-554 -6 c-3 -5 -12 -10 -18 -10 -7 0 -6 4 3 10 19 12 23 12 15 0z m380 0
c3 -5 2 -10 -4 -10 -5 0 -13 5 -16 10 -3 6 -2 10 4 10 5 0 13 -4 16 -10z m434
-22 c-1 -13 -5 -34 -9 -48 -7 -20 -8 -15 -7 23 0 26 4 47 9 47 4 0 8 -10 7
-22z m-1236 -11 c3 -8 1 -20 -4 -28 -6 -10 -9 -7 -9 14 0 29 5 35 13 14z m362
-7 c-10 -11 -23 -20 -29 -20 -6 1 0 10 13 20 30 26 39 26 16 0z m335 0 l55
-18 -144 -1 c-79 -1 -141 2 -138 6 11 11 100 32 137 32 19 0 60 -8 90 -19z
m155 10 c3 -5 1 -10 -4 -10 -6 0 -11 5 -11 10 0 6 2 10 4 10 3 0 8 -4 11 -10z
m-893 -62 c-6 -6 -7 0 -4 19 5 21 7 23 10 9 2 -10 0 -22 -6 -28z m1291 12 c3
-11 1 -18 -4 -14 -5 3 -9 12 -9 20 0 20 7 17 13 -6z m-109 -265 c24 -37 20
-99 -7 -131 -35 -40 -47 -24 -46 59 1 40 3 80 6 89 5 22 27 14 47 -17z"/>
<path d="M1276 941 c-4 -5 -2 -12 3 -15 5 -4 12 -2 15 3 4 5 2 12 -3 15 -5 4
-12 2 -15 -3z"/>
<path d="M1280 875 c0 -8 5 -15 10 -15 6 0 10 7 10 15 0 8 -4 15 -10 15 -5 0
-10 -7 -10 -15z"/>
<path d="M1888 883 c12 -2 30 -2 40 0 9 3 -1 5 -23 4 -22 0 -30 -2 -17 -4z"/>
<path d="M7976 454 c-8 -22 -9 -20 23 -34 32 -13 51 -7 51 15 0 16 -6 20 -41
29 -19 4 -29 1 -33 -10z"/>
<path d="M1430 431 c0 -5 -2 -15 -5 -23 -3 -8 7 -21 26 -32 29 -17 32 -17 47
-2 20 20 5 51 -24 51 -11 0 -25 4 -31 8 -7 5 -13 4 -13 -2z"/>
<path d="M2537 334 c-4 -4 -7 -81 -7 -171 l0 -163 30 0 c27 0 30 3 30 30 0 19
5 30 14 30 7 0 25 9 40 21 24 19 26 27 26 89 0 46 -4 70 -12 73 -25 8 -38 -6
-38 -42 0 -20 -3 -46 -6 -58 -14 -50 -23 -18 -26 85 -3 99 -5 107 -23 110 -12
2 -24 0 -28 -4z"/>
<path d="M2446 105 c-3 -9 -6 -37 -6 -61 0 -42 1 -44 30 -44 l31 0 -3 58 c-3
49 -6 57 -24 60 -13 2 -24 -4 -28 -13z"/>
<path d="M7996 9 c3 -5 33 -9 66 -9 34 0 59 2 57 4 -10 8 -129 13 -123 5z"/>
</g>
</svg>
